<svg id="Capa_1" data-name="Capa 1" xmlns="http://www.w3.org/2000/svg" viewBox="0 0 500 500"><defs><style>.cls-1{fill:#23346b;}</style></defs><path class="cls-1" d="M189.52,276.61c-1.07-18.77-9.15-26.51-21.55-29.78,8.47-4.84,13.7-12.12,13.69-23.31,0-29.07-25-33.71-50-31.89-11.9.87-23,3.11-31.66,6.75v103c10.4,5.19,25.55,7.55,39.35,7.55C159.23,308.91,191.11,304.75,189.52,276.61Zm-33.26,9.76c-14.82,4-30.15.56-31.58.28a11.92,11.92,0,0,1-2.73-.95L122,214c6.55-2.54,13.89-2.54,21.85-2.3s14.27,5.68,14.74,11.59-1.4,9.84-5.71,12.33a17.31,17.31,0,0,1-8.26,2.41l-6.48.18-9.36,16.46a22.44,22.44,0,0,0-.9,2.37c-.18.72.72.57.72.57s17.51-.48,26.11,1a14,14,0,0,1,10.89,9.11S171.08,282.37,156.26,286.37Z"/><path class="cls-1" d="M310,195.14v111.5s-.06.44.29.47,8.08.21,9,.19,12.19-.09,12.67-.16.72-.16.83-.38,0-48.2,0-48.2l30.78-.24,10.72-18.75s.21-.69-.35-.95a9.09,9.09,0,0,0-2.14-.38L333,238.07V196.23a6.31,6.31,0,0,0-.28-2.34c-.36-.63-2.5-.79-2.5-.79l-16.91.07a10.66,10.66,0,0,0-2.85.24C309.94,193.61,310,194,310,195.14Z"/><path class="cls-1" d="M399.79,277.4l.2-48.86V196.23a6.47,6.47,0,0,0-.27-2.34c-.36-.63-2.5-.79-2.5-.79l-16.91.07a10.66,10.66,0,0,0-2.85.24c-.47.2-.44.58-.43,1.73v111.5s-.07.44.29.47,8.07.21,9,.19,12.19-.09,12.68-.16.72-.16.83-.38.05-15.9,0-29.36Z"/><path class="cls-1" d="M241.25,257.48v-1.16l2.94-5.85,5-8.69,1.9-3.06s.18-.5,1.33-.48,11.74-.14,11.74-.14l13.26,0,10.85.11s1.21,0,1.23.39.09,1.4.12,2.42.11,8.33.12,9.29-.13,48.94-.17,49.22a.86.86,0,0,1-.11.37l-.71.38s-15.4,7.57-33.59,8-25.63-.83-37.76-8.73S196.22,269,200,235.85s22.29-42.5,42.17-44.4c18.64-1.78,38.42,3.57,38.42,3.57s1.07.35,1,.88a10.78,10.78,0,0,1-1.08,2.21L276,206.3l-4,6.91a36,36,0,0,1-3.68-.3c-1.1-.21-7.39-1.31-9.57-1.22s-15.42-1.31-21.52,2.26-16.91,12.7-14.44,46.51c2.24,30.61,27.46,28.68,34,27.61.33-.06.67-.12,1-.2l9.89-2.92.06-27.15Z"/></svg>