<svg id="Capa_1" data-name="Capa 1" xmlns="http://www.w3.org/2000/svg" viewBox="0 0 500 500"><defs><style>.cls-1{fill:#ca1618;}.cls-2{fill:#010000;}.cls-3{fill:#fff;}</style></defs><path class="cls-1" d="M69.73,256.51c4.19-1.2,57.68-17.3,63.08.15,8.36,27-57.67,49-57.67,49,27.24-2.48,86.49-32.88,72.46-55-4-6.35-12-8.63-21.45-8.63-23.76,0-56.42,14.49-56.42,14.49"/><path class="cls-1" d="M25.2,270.56c2.25,17,25.24,19.14,53.14,13.62,16.27-3.22,33.72-9.46,50.84-16.94,0,0-79.64,28-83.34-4.14-1.9-16.54,28.59-54.75,77.34-68.79-47.29,6.59-101.93,46.4-98,76.25"/><rect class="cls-1" x="164.64" y="279.06" width="93.32" height="21.41"/><path class="cls-2" d="M275,282.59h-3.91v14.09h2.13V291h2.1c2.69,0,5.27-1.11,5.27-4.23S278.05,282.59,275,282.59Zm.34,6.67h-2.12v-4.9H275c1.32,0,3.29.66,3.29,2.42S276.66,289.26,275.34,289.26Z"/><path class="cls-2" d="M295.89,291.06c-.47-.87-.8-1.18-1.44-1.4v-.05a3.37,3.37,0,0,0,3.07-3.21c0-3.37-2.85-3.81-5.79-3.81h-3.65v14.09h2.13v-6.25h1.28c1.13,0,1.85,0,2.49,1.36l2.3,4.89h2.43ZM292,288.64h-1.82v-4.28h2.06c2,0,3,.82,3,2.08S294.06,288.64,292,288.64Z"/><polygon class="cls-2" points="327.97 282.59 327.97 296.68 330.1 296.68 330.1 290.26 335.62 290.26 335.62 288.48 330.1 288.48 330.1 284.36 335.88 284.36 335.88 282.59 327.97 282.59"/><polygon class="cls-2" points="343.99 282.59 343.99 296.68 352.33 296.68 352.33 294.89 346.13 294.89 346.13 290.26 351.77 290.26 351.77 288.48 346.13 288.48 346.13 284.36 352.33 284.36 352.33 282.59 343.99 282.59"/><rect class="cls-2" x="392.46" y="282.59" width="2.13" height="14.09"/><polygon class="cls-2" points="434.73 282.59 434.73 293.92 434.69 293.92 428.12 282.59 425.22 282.59 425.22 296.68 427.35 296.68 427.35 285.09 427.4 285.09 434.14 296.68 436.87 296.68 436.87 282.59 434.73 282.59"/><path class="cls-2" d="M452.73,282.59h-2.25l-6.35,14.09h2.24l1.52-3.56h7.3l1.51,3.56H459Zm-4.16,8.87,3-7,3,7Z"/><polygon class="cls-2" points="466.28 282.59 466.28 296.68 474.64 296.68 474.64 294.89 468.41 294.89 468.41 282.59 466.28 282.59"/><path class="cls-2" d="M312.77,282.34c-4.52,0-7.16,3.11-7.16,7.28s2.62,7.29,7.16,7.29,7.18-3,7.18-7.29S317.3,282.34,312.77,282.34Zm0,12.79c-3.44,0-4.9-2.7-4.9-5.51s1.61-5.52,4.9-5.49,4.91,2.63,4.91,5.49S316.2,295.13,312.77,295.13Z"/><path class="cls-2" d="M360,286.18c0,4.37,6.39,3.51,6.39,6.66,0,1.66-1.69,2.29-2.91,2.29a9,9,0,0,1-3.09-.68l-.22,1.89a10.83,10.83,0,0,0,3.05.57c3,0,5.44-1.19,5.44-4.2,0-4.64-6.4-4-6.4-6.72,0-1.47,1.41-1.86,2.6-1.86a6.84,6.84,0,0,1,2.81.58l.29-1.86a10.25,10.25,0,0,0-3.18-.51c-2.7,0-4.78,1.33-4.78,3.84"/><path class="cls-2" d="M375.77,286.18c0,4.37,6.41,3.51,6.41,6.66,0,1.66-1.72,2.29-2.92,2.29a9.1,9.1,0,0,1-3.11-.68l-.22,1.89a11,11,0,0,0,3.06.57c3,0,5.44-1.19,5.44-4.2,0-4.64-6.4-4-6.4-6.72,0-1.47,1.41-1.86,2.61-1.86a6.78,6.78,0,0,1,2.79.58l.3-1.86a10.3,10.3,0,0,0-3.18-.51c-2.69,0-4.78,1.33-4.78,3.84"/><path class="cls-2" d="M409.91,282.34c-4.53,0-7.17,3.11-7.17,7.28s2.63,7.29,7.17,7.29,7.18-3,7.18-7.29S414.44,282.34,409.91,282.34Zm0,12.79c-3.43,0-4.91-2.7-4.91-5.51s1.63-5.52,4.91-5.49,4.92,2.63,4.92,5.49S413.36,295.13,409.91,295.13Z"/><path class="cls-2" d="M307.69,259.48a4.57,4.57,0,0,0,9.11,0,4.56,4.56,0,0,0-9.11,0"/><path class="cls-2" d="M379.39,200.73l-15.93,44.39L347,200.73H318v.42h.66c9.09,0,7.82,7.06,7.82,12.24v47.23c0,2,2.07,3.71,4.59,3.71s4.48-1.63,4.48-3.71V214.55l18.7,46a6.49,6.49,0,0,0,6.22,3.8c3,0,5.45-1.45,6.33-3.71l18.8-46.51v49.31H400.1V200.73Z"/><path class="cls-2" d="M472.23,203.49a1.39,1.39,0,0,0-.86-1.41,4.35,4.35,0,0,0-1.51-.19h-1.93v5.54h.93v-2.2h.79a2.38,2.38,0,0,1,1.09.18,1.35,1.35,0,0,1,.52,1.28v.43l0,.18a.12.12,0,0,0,0,.08.2.2,0,0,1,0,.05h.92l0-.08a.75.75,0,0,1-.06-.29c0-.15,0-.29,0-.41v-.41a1.68,1.68,0,0,0-.3-.86,1.34,1.34,0,0,0-.94-.52,2.3,2.3,0,0,0,.79-.29A1.21,1.21,0,0,0,472.23,203.49Zm-1.52.94a2.84,2.84,0,0,1-.95.12h-.9v-2h.85a2.79,2.79,0,0,1,1.21.21.82.82,0,0,1,.36.79A.8.8,0,0,1,470.71,204.43Z"/><path class="cls-2" d="M473.53,201.13a4.93,4.93,0,0,0-3.58-1.49,5.09,5.09,0,0,0-5,5,4.94,4.94,0,0,0,1.45,3.57,5.05,5.05,0,0,0,8.63-3.57A4.82,4.82,0,0,0,473.53,201.13Zm-.48,6.64a4.39,4.39,0,0,1-6.18,0,4.24,4.24,0,0,1-1.27-3.09,4.11,4.11,0,0,1,1.28-3.06,4.35,4.35,0,0,1,7.43,3.06A4.27,4.27,0,0,1,473.05,207.77Z"/><path class="cls-2" d="M163.79,232c0,25.72,24.09,32.34,38,32.34,7.1,0,15.31-1.35,24.58-4v-22.5H203.76c-6.18,0-6.42,6.79,0,6.79h10.35l0,2v4.62c0,5.15-2.08,6.1-10.05,6.1-13.77,0-24.71-7.73-24.71-25.8,0-14.47,8.53-25.74,21.86-25.74,9.06,0,18.22,3.07,18.86,9.31h.44V202.54a59.41,59.41,0,0,0-19.42-2.9c-15.65,0-37.28,9.44-37.28,32.35"/><path class="cls-2" d="M273.87,199.57c-.49,0-1,0-1.45,0-6.53,0-10.72,1.55-13.46,7.88l-22.18,52.11a3.24,3.24,0,0,0-.33,1.36c0,1.89,2,3.44,4.7,3.44,3.17,0,4-2.89,6.23-8.67,2.85-7.5,3.61-11.12,9.94-11.12h19.9l7.86,18.78h15.68ZM270,238.4H254.59l10-24.3,8.53,21.05a4.22,4.22,0,0,1,.42,1.63C273.49,238.22,272.4,238.4,270,238.4Z"/><path class="cls-2" d="M448.12,199.57c-.51,0-1,0-1.45,0-6.53,0-10.73,1.55-13.47,7.88L411,259.53a3.24,3.24,0,0,0-.33,1.36c0,1.89,2,3.44,4.71,3.44,3.17,0,4-2.89,6.23-8.67,2.85-7.5,3.6-11.12,9.94-11.12h19.9l7.86,18.78H475Zm-3.87,38.83H428.83l9.95-24.3,8.53,21.05a4.41,4.41,0,0,1,.42,1.63C447.73,238.22,446.65,238.4,444.25,238.4Z"/><rect class="cls-3" x="178.32" y="282.97" width="2.78" height="12.93"/><polygon class="cls-3" points="187.37 282.97 198.08 282.97 198.08 285.03 194.1 285.03 194.1 295.9 191.33 295.9 191.33 285.03 187.37 285.03 187.37 282.97"/><polygon class="cls-3" points="206.97 282.97 210.1 282.97 215.52 295.9 212.46 295.9 211.27 292.94 205.66 292.94 204.45 295.9 201.57 295.9 206.97 282.97"/><polygon class="cls-3" points="222.06 282.97 224.84 282.97 224.84 293.87 230.22 293.87 230.22 295.9 222.06 295.9 222.06 282.97"/><polygon class="cls-3" points="242.99 282.97 245.93 282.97 240.97 290.8 240.97 295.9 238.2 295.9 238.2 290.8 233.13 282.97 236.38 282.97 239.66 288.42 242.99 282.97"/><polygon class="cls-1" points="208.46 285.57 206.46 290.9 210.5 290.9 208.5 285.57 208.46 285.57"/></svg>