<svg id="Capa_1" data-name="Capa 1" xmlns="http://www.w3.org/2000/svg" viewBox="0 0 500 500"><defs><style>.cls-1{fill:#1e2245;}</style></defs><path class="cls-1" d="M458.21,206.59v61.7c-1.46-1.87-2.36-3-3.24-4.15q-21.25-27.72-42.54-55.42c-.67-.88-1.6-2.17-2.46-2.21-4.53-.22-9.07-.1-13.83-.1v83.72c0,1.16-.09,2.33-.14,3.49h17V232.06a12.25,12.25,0,0,1,1.29,1.2q22.77,29.69,45.52,59.37a8.91,8.91,0,0,1,.59,1H475v-87Z"/><path class="cls-1" d="M182.4,266.32c13.64-6.17,20.71-20.78,17.39-35.9-3.13-14.25-15.36-23.95-30.22-23.95H127a7.23,7.23,0,0,0-.24,1.19q0,43,0,86h16.39V269c4.58,0,8.91,0,13.23.05.55,0,1.17.62,1.6,1.1q10.32,11.29,20.57,22.66a2.14,2.14,0,0,1,.29.78h22.82l-23.4-25.45Zm-38.92-10.74V219.9c8.12,0,16-.35,23.89.1a17.32,17.32,0,0,1,16.56,18.09c-.33,10.2-7.15,17.16-17.43,17.45C158.91,255.75,151.31,255.58,143.48,255.58Z"/><path class="cls-1" d="M62.55,206.51c-10.23-.26-20.48,0-30.72,0H25.37v13.39c12.6,0,25,0,37.37,0a23,23,0,0,1,16.61,6.74c10,9.57,12.52,25.78,6,38.65-3.9,7.72-9.73,13.61-18.53,14.51-8.17.83-16.49.18-25.05.18V238.68H25.14c0,2.71,0,5.13,0,7.56q-.06,23.68-.14,47.38H67.13a11,11,0,0,1,1.66-.52c11.07-1.75,20.31-6.9,27.14-15.74,11-14.21,13-29.94,5.32-46.13C93.63,215.27,80.33,207,62.55,206.51Z"/><path class="cls-1" d="M348.51,208.8c-.39-.94-1.54-2.19-2.38-2.23-4.95-.21-9.91-.1-14.87-.1-.34.77-.62,1.39-.88,2Q316,243.73,301.57,279c-2,4.84-3.76,9.76-5.63,14.64h17.55c1.35-3.82,2.63-7.67,4.13-11.44A2.91,2.91,0,0,1,319.9,281c13-.07,26-.09,39.06,0a3.36,3.36,0,0,1,2.46,1.71c1.53,3.56,2.79,7.23,4.15,10.86h17.56q-6.13-15.14-12.28-30.27Q359.74,236.05,348.51,208.8Zm-25.36,58.45,16.28-43.12,16.22,43.12Z"/><path class="cls-1" d="M239.83,256.64h40.78V243.33H239.82V220.06h41.94V206.64H222.93v83.48c0,1.17-.09,2.34-.14,3.5h59.69V279.91H239.83Z"/></svg>