<svg id="Capa_1" data-name="Capa 1" xmlns="http://www.w3.org/2000/svg" viewBox="0 0 500 500"><defs><style>.cls-1{fill:#e20613;}</style></defs><circle class="cls-1" cx="203.14" cy="214.26" r="13.77" transform="translate(-92.01 206.4) rotate(-45)"/><circle class="cls-1" cx="263.22" cy="214.26" r="13.77"/><path class="cls-1" d="M202.34,234.62A12.08,12.08,0,0,0,190.54,247v53.22h23.6V247A12.08,12.08,0,0,0,202.34,234.62Z"/><path class="cls-1" d="M263.22,234.62A12.08,12.08,0,0,0,251.42,247v53.22H275V247A12.09,12.09,0,0,0,263.22,234.62Z"/><path class="cls-1" d="M232.65,199.74c-8,0-11.8,5.53-11.8,12.35v88.1h23.6v-88.1C244.45,205.27,241.16,199.74,232.65,199.74Z"/><path class="cls-1" d="M174.6,274.74a14.62,14.62,0,0,0-2.5.22c-9.26.35-8.18-6.06-8.18-6.06V212.09c0-6.82-3.3-12.35-11.8-12.35-8,0-11.8,5.53-11.8,12.35V285c.94,12.94,15,15.19,15,15.19H174.6c7.6,0,13.77-5.7,13.77-12.72S182.2,274.74,174.6,274.74Z"/><path class="cls-1" d="M310.83,233.13c-18.14,0-32.84,15-32.84,33.53s14.7,33.53,32.84,33.53a32.41,32.41,0,0,0,4.43-.34V275.17a9.79,9.79,0,1,1,5.39-8.72v33.74h23V260.67h-.56A33,33,0,0,0,310.83,233.13Z"/><path class="cls-1" d="M474.45,260.67c-2.77-15.66-16.16-27.54-32.29-27.54-18.14,0-32.84,15-32.84,33.53s14.7,33.53,32.84,33.53a32.56,32.56,0,0,0,4.44-.34V275.17a9.8,9.8,0,1,1,5.38-8.72v33.74h23V260.67Z"/><path class="cls-1" d="M378.28,233.13a27.54,27.54,0,0,0-27.54,27.54v38.62H372.1V263.76a6.19,6.19,0,0,1,12.37,0v35.53h21.36v-39h0A27.53,27.53,0,0,0,378.28,233.13Z"/><path class="cls-1" d="M67.68,196.69a1.78,1.78,0,0,0-1.78,1.77v15.89L56,204.82a1.77,1.77,0,0,0-2.46,2.55L66.45,219.8a1.77,1.77,0,0,0,1.23.49,1.67,1.67,0,0,0,.69-.14,1.78,1.78,0,0,0,1.08-1.63V198.46A1.77,1.77,0,0,0,67.68,196.69Z"/><path class="cls-1" d="M47.62,251.69l20.45-22.31a1.73,1.73,0,0,0,.2-.32l.1-.12.49-.8V223.8s-.45-1.35-1.4.19a2.47,2.47,0,0,1-1.37,1.15L43.72,204.29a1.77,1.77,0,1,0-2.41,2.59l23,21.4-3.66,4L34,206.12a1.77,1.77,0,1,0-2.49,2.52l26.67,26.25-3.1,3.39-26-26.16a1.77,1.77,0,1,0-2.51,2.5l26.13,26.27-3.27,3.57L26.83,222.72a1.78,1.78,0,0,0-1.83-.37v3.53l22,21.19-3,3.27a2,2,0,0,0-.36.62L26.85,234.24a1.75,1.75,0,0,0-1.85-.4v3.55l14.4,14.3Z"/><path class="cls-1" d="M75.67,219.93a1.81,1.81,0,0,0,.69.14,1.76,1.76,0,0,0,1.23-.5l12.87-12.42A1.77,1.77,0,1,0,88,204.6l-9.87,9.52V198.24a1.77,1.77,0,1,0-3.54,0V218.3A1.77,1.77,0,0,0,75.67,219.93Z"/><path class="cls-1" d="M117,222.72,94.41,244.46l-3.27-3.57,26.13-26.27a1.77,1.77,0,1,0-2.51-2.5l-26,26.16-3.11-3.39,26.68-26.25a1.77,1.77,0,1,0-2.49-2.52L83.25,232.28l-3.66-4,23-21.4a1.77,1.77,0,1,0-2.41-2.59L77.77,225.14A2.47,2.47,0,0,1,76.4,224c-1-1.54-1.4-.19-1.4-.19v4.34l.49.8.1.12a1.73,1.73,0,0,0,.2.32l20.45,22.31h8.22l14.4-14.3v-3.55a1.75,1.75,0,0,0-1.85.4L100.17,251a2,2,0,0,0-.36-.62l-3-3.27,22-21.19v-3.53A1.77,1.77,0,0,0,117,222.72Z"/><path class="cls-1" d="M68.72,277.82a1.73,1.73,0,0,0-.2-.32L48.07,255.19H39.85l-14.4,14.3V273a1.77,1.77,0,0,0,1.85-.39l16.84-16.73a1.56,1.56,0,0,0,.36.62l3,3.27L25.45,281v3.53a1.76,1.76,0,0,0,1.83-.37L49.9,262.42,53.17,266,27,292.26a1.77,1.77,0,1,0,2.51,2.5l26-26.15,3.1,3.38L32,298.24a1.77,1.77,0,0,0,2.48,2.53L61.06,274.6l3.66,4-23,21.4a1.77,1.77,0,1,0,2.41,2.59l22.37-20.85a2.51,2.51,0,0,1,1.37,1.15c1,1.54,1.4.2,1.4.2v-4.35l-.49-.79Z"/><path class="cls-1" d="M96.24,255.66,75.79,278a2.23,2.23,0,0,0-.2.33l-.1.12-.49.8v4.34s.45,1.35,1.4-.2a2.49,2.49,0,0,1,1.37-1.14l22.37,20.85a1.77,1.77,0,0,0,2.41-2.59l-23-21.41,3.66-4,26.58,26.16a1.77,1.77,0,1,0,2.49-2.52L85.64,272.45l3.11-3.38,26,26.16a1.77,1.77,0,1,0,2.51-2.5L91.14,266.46l3.27-3.57L117,284.63a1.77,1.77,0,0,0,1.83.37v-3.53l-22-21.19,3-3.28a1.89,1.89,0,0,0,.36-.61L117,273.11a1.77,1.77,0,0,0,1.85.4V270l-14.4-14.29Z"/><polygon class="cls-1" points="75.22 235.04 75 242.33 83.01 250.42 90.59 250.42 75.22 235.04"/><polygon class="cls-1" points="54.07 256.7 69 271.64 69.31 265.61 60.85 256.7 54.07 256.7"/><polygon class="cls-1" points="75.37 264.79 76.41 270.04 89.52 256.93 82.63 256.93 75.37 264.79"/><polygon class="cls-1" points="68.86 234.77 53.22 250.42 60.93 250.42 68.86 242.11 68.86 234.77"/><rect class="cls-1" x="67.3" y="248.2" width="1.79" height="1.79"/><rect class="cls-1" x="67.3" y="257.1" width="1.7" height="1.7"/><rect class="cls-1" x="74.43" y="248.2" width="1.79" height="1.79"/><rect class="cls-1" x="74.43" y="257.1" width="1.7" height="1.7"/><polygon class="cls-1" points="74.43 289.79 88.67 303.07 93.87 303.07 74.43 284.95 74.43 289.79"/><polygon class="cls-1" points="55.07 303.53 69.31 290.26 69.31 285.41 49.87 303.53 55.07 303.53"/></svg>