<svg id="Capa_1" data-name="Capa 1" xmlns="http://www.w3.org/2000/svg" viewBox="0 0 500 500"><defs><style>.cls-1{fill:#1290d0;}</style></defs><path class="cls-1" d="M72.58,317.53A97.84,97.84,0,0,1,25,268.19,91.89,91.89,0,0,0,72.58,329.9Zm0-146v21.75c-21.39,15.4-35.21,40-35.21,67.5a71.61,71.61,0,0,0,2.22,17.4,77.77,77.77,0,0,1-8.84-35.75c0-30.18,16.85-56.32,41.83-70.9m31,154.81v13a91.19,91.19,0,0,1-31-9.4V317.53a97.2,97.2,0,0,0,31,8.81m0-17.19v3.17a54.71,54.71,0,0,1-10.81.43,89.52,89.52,0,0,0,10.81-3.6m0-148.23V179.1a85.53,85.53,0,0,0-31,14.18V171.53a89.26,89.26,0,0,1,31-10.61m150.61,62.71H241.78a1.77,1.77,0,0,0-1.81,2V239.2h15.82V225.42a1.59,1.59,0,0,0-1.64-1.79M114.5,177.11a75.7,75.7,0,0,1,10-.62,88.74,88.74,0,0,1,73.75,39.16c-12-33-44.57-55.74-81.56-55.74H114.5Zm0,163h.25c50.53,0,80.67-42.36,85.89-72.49,0,0,7,43.94,7.19,45.54h20.81c-.42-2-14.2-86.5-14.64-87.72,0,0,0-1.79-1.17-1.79H197.05c-1.79,0-1.39,1.79-1.39,1.79a106.17,106.17,0,0,1,.57,12.2c0,15.37-1.81,37.35-18.78,58.55l-1,1.38s-10.39-70.71-10.61-72.13c0,0,0-1.79-1.21-1.79h-16c-1.36,0-1.36,1.59-1.36,1.59-.22,6.81-3.4,55-32.8,77.36v7.18a57.89,57.89,0,0,0,13-6.25c13.58-8.33,22.77-21.13,25.76-35.73,0,0,6.21,38.17,7,46.78v.58l-.4.18A97,97,0,0,1,114.5,326.9ZM301.55,248c-10,0-18.22,3.25-24.17,8.86-6.23,5.79-9.2,14.15-9.2,24.55,0,9.18,2.6,16.79,7.58,22.95,5.24,5.82,12.64,9,22.18,9a21.58,21.58,0,0,0,3.61-.19v-13a14.79,14.79,0,0,1-11.37-4.95c-3.22-3.63-4.59-8.62-4.59-15.59,0-6.4,1.37-11.4,4.18-14.59,2.58-3,6.61-4.61,11.78-4.81ZM240,313.14h15.65V248.43H240Zm61.58,0v-13l.79.26a18.71,18.71,0,0,0,8.61-1.85,19.53,19.53,0,0,0,5.82-3,3.82,3.82,0,0,0,.77-2.42V266.78a3,3,0,0,0-.77-2.21,17.33,17.33,0,0,0-5.22-3,30.23,30.23,0,0,0-8.58-1.42h-1.42V248h.19a46.51,46.51,0,0,1,7.81.64A22.1,22.1,0,0,1,316,251l1.57.86V225.42s.22-1.79,1.42-1.79h12.8c1.36,0,1.36,1.79,1.36,1.79v87.72H317.54V305s-4.58,6.77-16,8.18M378.06,248c-9.17.27-16.95,3.25-23.35,9.21-6.18,5.84-9.4,14-9.4,23.57,0,10,3.22,17.62,9.16,23.58,5.84,5.43,13.61,8.42,23.59,8.81V300.56a25.11,25.11,0,0,1-10-4.2c-3.18-2.4-5.58-5.8-6.62-11.37l-.2-1.82h16.8v-9H362.29c-.83,0-.83-.62-.83-1a15.73,15.73,0,0,1,4.6-9.23,17.4,17.4,0,0,1,12-5Zm0,35.2v-9h15.61c1.38,0,.77-1.21.77-2a17.17,17.17,0,0,0-5.38-9.39A15.85,15.85,0,0,0,378.49,259h-.43V248h.62c9.37,0,17,3.44,22.39,9.64s8.16,15,8.34,25.56Zm0,30V300.56c.84,0,1.65.2,2.23.2,6.59.37,17.53-.2,22.56-9.21l5.61,1.82c-1.8,4.8-6.6,19.77-28,19.77Zm69.78-41.77c-5.84.2-11.42,1.22-15.6,3.21-10.19,4.57-11.81,13.78-11.57,20.79.8,10,9.59,17.15,21.18,17.77a31.49,31.49,0,0,0,6,0V302.76H445c-7.4-.59-9.77-5.6-10.38-7.83,0-1-1.82-10.35,7.36-13.19a20.42,20.42,0,0,1,5.84-1.18Zm0-23.57c-17,.81-23.22,11.19-25.22,16.61l-.57,1.77,6,2.23s4-11.43,19.6-10.8h.22Zm-344.3-68.7V160.92a65.48,65.48,0,0,1,11-1v17.2a69,69,0,0,0-11,2m0,133.22v-3.17a55.28,55.28,0,0,0,11-6.57v7.18a79.1,79.1,0,0,1-11,2.56m0,27v-13a104.65,104.65,0,0,0,10.79.56h.17v13.19a66.71,66.71,0,0,1-11-.79m344.3-26.16V302.76a26,26,0,0,0,12-2.63c1.05-.37,1.37-1,1.37-2.19V284.58c0-1.41-.32-2.05-1.62-2.42a38.89,38.89,0,0,0-11.71-1.6v-9.19a47.51,47.51,0,0,1,13.56,1.82c0-2,1.79-14.8-13.56-15.58V247.8h1.62c20.34,0,25.75,13.17,25.53,20.8v44.54H461.17v-6c-3.35,3.4-6.92,5.6-13.33,6"/></svg>