<svg id="Capa_1" data-name="Capa 1" xmlns="http://www.w3.org/2000/svg" viewBox="0 0 500 500"><defs><style>.cls-1{fill:#e20613;}</style></defs><path class="cls-1" d="M188.18,251.45c4-4.67,3.92-14.28,3.92-14.28s.38-10.75-2.53-18.21a15.53,15.53,0,0,0-9-9.29c-3.71-1.8-12.29-2.15-15-2.21v0H100v84.72h38.27v-71h10.28v37.1l15,33.88H203.6l-18.95-36.81C185.27,254.73,186.33,253.59,188.18,251.45Z"/><polygon class="cls-1" points="364.06 207.44 362.11 207.44 331.35 207.44 295.89 292.16 336.85 292.16 351.96 256.64 351.96 221.24 362.11 221.24 362.11 292.16 400 292.16 400 207.44 364.06 207.44"/><path class="cls-1" d="M293.66,255.14H257.27V280H246.52V221.24h10.75v23h40s.76-14.16-1.77-22.16-6.95-10.4-6.95-10.4-4.36-3.73-15.17-4.93a226.24,226.24,0,0,0-23.83-1s-17.51-.44-27.69,3.35a21.9,21.9,0,0,0-13,12.9,74.52,74.52,0,0,0-2.08,17.19c-.19,10.49,0,22.31.31,25.22s.82,15.43,5.44,20.67,10.11,7.42,20.8,8.54,29.58.5,34.32.25,15.42-1.14,22.31-7.52,6.73-19.06,7.38-31.21Z"/></svg>