<svg id="Capa_1" data-name="Capa 1" xmlns="http://www.w3.org/2000/svg" viewBox="0 0 500 500"><defs><style>.cls-1{fill:#1d1d1b;}.cls-2{fill:#ecab08;}</style></defs><rect class="cls-1" x="197.33" y="216.02" width="13.42" height="59.4"/><polygon class="cls-1" points="258.73 275.41 272.07 275.41 272.07 191.46 272.07 190.21 258.73 191.46 258.73 275.41"/><polygon class="cls-1" points="461.65 191.46 461.65 275.41 475 275.41 475 191.46 475 190.21 461.65 191.46"/><path class="cls-1" d="M234,221c-1.35.68-3-4.71-3-4.71l-8.74.18v58.93h12.85V230.26a24,24,0,0,1,17.7-1.82V215.23S241.73,213.91,234,221Z"/><path class="cls-1" d="M313.57,215.23s-11.14-1.32-18.85,5.78c-1.36.68-3-4.71-3-4.71l-8.75.18v87.59l12.72-1.25V275.09A35.26,35.26,0,0,0,307,276.36c7.81-.23,17.57-.52,24-16.13S331.62,215.83,313.57,215.23Zm4.5,40c-2.38,7.24-5.52,10-14.47,9.71a59,59,0,0,1-7.87-.71v-34l.13,0a23.9,23.9,0,0,1,15.43-2.34C312.05,228.15,325.38,232.61,318.07,255.18Z"/><rect class="cls-1" x="196" y="192.84" width="16.09" height="16.09" rx="7.4"/><path class="cls-1" d="M167.82,215.23S157.61,214,150,220.15V190.21l-12.72,1.25v84h12.85V230.26a24,24,0,0,1,17.71-1.82s6.1,1.54,4.81,16.83c-.14,15.36,0,30.14,0,30.14h12.92v-41S185.66,213.8,167.82,215.23Z"/><polygon class="cls-1" points="100.67 252 84.11 190.89 70.97 190.89 54.27 252 37.78 190.89 25 190.89 47.42 275.41 60.77 275.41 77.76 214.09 94.1 275.41 107.6 275.41 130.51 190.89 117.45 190.89 100.67 252"/><path class="cls-1" d="M368.76,215.13h-4.28a23.1,23.1,0,0,0-21.91,15.8h0s-3.75,10.06-1,25.29c0,0,0,0,0,.06a23.08,23.08,0,0,0,22.92,20.33h4.28a23.08,23.08,0,0,0,23.06-22.29,57.52,57.52,0,0,0-.09-18.36A23.09,23.09,0,0,0,368.76,215.13Zm-2.14,51.14c-10.56,0-13.18-8.78-13.23-20.44-.05-10.49,3.17-20.44,13.23-20.44,7.5,0,12.89,4.48,12.85,20.48C379.44,256.58,376.84,266.28,366.62,266.27Z"/><path class="cls-1" d="M428.16,215.13h-4.28a23.1,23.1,0,0,0-21.9,15.8h0s-3.75,10.06-1,25.29c0,0,0,0,0,.06a23.07,23.07,0,0,0,22.91,20.33h4.28a23.08,23.08,0,0,0,23.07-22.29,57.76,57.76,0,0,0-.1-18.36A23.08,23.08,0,0,0,428.16,215.13ZM426,266.27c-10.56,0-13.18-8.78-13.23-20.44,0-10.49,3.18-20.44,13.23-20.44,7.51,0,12.9,4.48,12.85,20.48C438.84,256.58,436.24,266.28,426,266.27Z"/><path class="cls-2" d="M272.07,202.45v6.14S316,176.47,334.61,183s-9.07,46.25-38.88,74.81-84.55,66.82-101.68,52.73c-6.48-7.23,2.38-25.22,10-35.17h-6.71s-25.75,35.36-8.52,47.26,66.92-20.84,66.92-20.84,27.7-16.42,61-52,40.82-60.53,32.13-70.53C338.32,167.26,302.84,180.32,272.07,202.45Z"/></svg>