<svg id="Capa_1" data-name="Capa 1" xmlns="http://www.w3.org/2000/svg" viewBox="0 0 500 500"><defs><style>.cls-1{fill:#23388b;}</style></defs><path class="cls-1" d="M93.48,217.26l-11.9,65.55H99.19l8.71-59.4a.19.19,0,0,1,.16-.19c.17,0,.2.2.2.2l8.55,59.39H134.2l-12-65.55Z"/><path class="cls-1" d="M190.61,217.26l-7.69,50a.17.17,0,0,1-.34,0l-8.36-50H148.58l-1.51,65.55h16l.41-59.07a.44.44,0,0,1,.42.33l10.52,58.63h16.38l10.91-58.93H202l.34,58.92h16l-1.34-65.44Z"/><path class="cls-1" d="M324.25,244.65v21.89a6.41,6.41,0,1,1-12.82,0V217.43H295.12v49.11h.07c.59,10.19,5.44,18.12,22.65,18.11s22.06-7.92,22.65-18.11h.06V217.43h-16.3Z"/><path class="cls-1" d="M452.25,227.18c3.54.1,6.47,2.09,6.45,6.78l.08,4.13H475v-3l0-1.24c-.59-10.2-5.47-18.35-22.67-18.35-15.93,0-21.28,7.12-22.45,16.27h0c-.14.5-.27,7.52-.27,7.52v26.46h.07c.58,10.19,5.44,18.12,22.65,18.11s22.06-7.92,22.65-18.11H475V246.08H452.29v9.36h6.41v10.27c0,3.6-1.89,6.57-6.41,6.52-4.09,0-6.86-2.48-6.86-6.08l.19-21.55-.16-12.12A6.26,6.26,0,0,1,452.25,227.18Z"/><path class="cls-1" d="M397.57,268.63a.18.18,0,0,1-.35.06l-14.81-51.26H358.28v64.88h16.05l-.95-53.16a.19.19,0,0,1,.38-.05l16,53.21h22.74V217.43h-16Z"/><path class="cls-1" d="M280.06,261.07a8.69,8.69,0,0,0-.07-.88v-.29h0c-1.16-7.88-11.64-13.54-11.64-13.54s-9.95-5.19-14.51-8.45a6.91,6.91,0,0,1-2.36-8.28,5.4,5.4,0,0,1,5.58-3.2c5,.33,5.94,3.4,5.94,7l.08,3h15.75v-.14l0-5.35c-.59-10.19-7.3-16.06-21.72-15.62-14.77.46-20.35,5.64-21.87,13.85h0c-3.55,14.29,9.08,20.86,9.16,21s9.58,5.55,9.58,5.55,4.47,2.72,7.31,4.85a6.79,6.79,0,0,1,2.82,5.1h0v.83c0,3.6-.64,6.46-6.41,6.52-4.53,0-6.41-2.92-6.41-6.52V261H234.55l-.19,6.87c.59,10.19,6,16.77,23.25,16.76s22.65-7.65,22.65-17.85l-.21-5.22C280.06,261.41,280.06,261.25,280.06,261.07Z"/><path class="cls-1" d="M70.69,261.07a8.67,8.67,0,0,0-.06-.88v-.29h0C69.43,252,59,246.36,59,246.36s-10-5.19-14.51-8.45a6.9,6.9,0,0,1-2.36-8.28,5.4,5.4,0,0,1,5.58-3.2c5,.33,5.94,3.4,5.94,7l.08,3H69.42V231c-.59-10.19-7.31-16.06-21.73-15.62-14.77.46-20.35,5.64-21.86,13.85h0c-3.56,14.29,9.08,20.86,9.16,21s9.57,5.55,9.57,5.55,4.48,2.72,7.32,4.85a6.79,6.79,0,0,1,2.81,5.1h0v.83c0,3.6-.64,6.46-6.41,6.52-4.53,0-6.41-2.92-6.41-6.52V261H25.19L25,267.89c.59,10.19,6,16.77,23.24,16.76S70.89,277,70.89,266.8l-.21-5.22A4.3,4.3,0,0,0,70.69,261.07Z"/></svg>