<svg id="Capa_1" data-name="Capa 1" xmlns="http://www.w3.org/2000/svg" viewBox="0 0 500 500"><defs><style>.cls-1{fill:#1d1d1b;}</style></defs><polygon class="cls-1" points="119.74 281 147.5 238.46 128.81 236.67 100 281 119.74 281"/><path class="cls-1" d="M129.66,235.19l8-12.14a6.44,6.44,0,0,1,5.7-3.9c4.43-.32,30.71,0,30.71,0v14s4.28-12.93,15.89-13.88h57.68v15.89Z"/><path class="cls-1" d="M156.89,239.41V281H235a17.91,17.91,0,0,0,14.22-11.12,36.74,36.74,0,0,0,1.12-6.12l.5-.07s-.64,14.91,15.9,17.31h39.19s15.41-.43,16.36-15.84V241.63L306,240.57V260s1,5.52-8.27,5.31-25.08,0-25.08,0-5.07.53-5.45-5.38V238.32l-16.5-1.69v22.66s-3.42-12.56-16.29-13.69-59.57-4.92-59.57-4.92,1.55,11.89,15.2,13.86S231.76,258,231.76,258s4.4.37,4,3.93-5.44,3.27-5.44,3.27h-57V240.41Z"/><rect class="cls-1" x="250.67" y="219" width="16.62" height="16.18"/><rect class="cls-1" x="306.06" y="219.43" width="16.22" height="15.76"/><path class="cls-1" d="M400,219.43v15.76H322.28s2.71-13.79,15.38-15.76Z"/><path class="cls-1" d="M323.51,241.63l53.34,3.06s12.95.07,17.52,5.49,6.26,7.17,5.21,16.11-7.39,13.09-15.55,14.64c-10.42,0-61.75.07-61.75.07V264.32h58.65s3.87.77,3.8-3.8c-.21-3-3.45-2.6-3.45-2.6l-43.9-3.7S326.47,252.64,323.51,241.63Z"/></svg>