<svg id="Capa_1" data-name="Capa 1" xmlns="http://www.w3.org/2000/svg" xmlns:xlink="http://www.w3.org/1999/xlink" viewBox="0 0 226.77 170.08"><defs><style>.cls-1{fill:none;}.cls-2{fill:#fff;}.cls-3{clip-path:url(#clip-path);}</style><clipPath id="clip-path"><polygon class="cls-1" points="62.51 136.02 7.55 136.02 7.09 34.06 62.51 34.06 62.51 136.02"/></clipPath></defs><path class="cls-2" d="M54.89,71.48H39.32V66.69h37.9v4.79H61.57v38.83H54.89Z"/><path class="cls-2" d="M64.57,113.3H51.89V74.48H36.32V63.7h43.9V74.48H64.57Zm-6.68-6h.69V69.69h-.69Z"/><g class="cls-3"><path class="cls-2" d="M96.83,73.77s.17.58.33,1.16c.09.29.16.58.21.8l.08.37-2.31.54-.08-.34c0-.21-.11-.49-.19-.76-.16-.54-.31-1.09-.31-1.09Z"/><path class="cls-2" d="M103.22,71.84l.38,1.37a8.15,8.15,0,0,1,.24.94l.1.44-2.31.54-.1-.41c0-.25-.13-.58-.22-.9l-.37-1.29Z"/><path class="cls-2" d="M101.08,77.49s0,.16.07.4.11.56.15.89l.16,1.3-2.36.27-.16-1.22c0-.31-.1-.62-.13-.84s-.07-.38-.07-.38Z"/><path class="cls-2" d="M98.39,82.45s0,.15,0,.38,0,.53,0,.83l0,1.21H96.09s0-.57,0-1.14c0-.28,0-.57,0-.78s0-.35,0-.35Z"/><path class="cls-2" d="M101.65,82.25s0,.16,0,.41,0,.57,0,.9l0,1.31H99.37l0-1.24c0-.31,0-.62,0-.85l0-.39Z"/><path class="cls-2" d="M105,82s0,.17,0,.44,0,.62,0,1l0,1.42h-2.38s0-.67,0-1.34c0-.34,0-.68,0-.93s0-.42,0-.42Z"/><path class="cls-2" d="M95.32,69.62l.15.34.3.78c.11.28.23.56.31.77a3.27,3.27,0,0,1,.13.35L94,72.67a3.24,3.24,0,0,0-.12-.33l-.29-.73c-.1-.26-.2-.53-.28-.72l-.15-.33Z"/><path class="cls-2" d="M98.32,68.32l.17.37.33.84.33.84c.09.23.14.39.14.39l-2.24.8a2.94,2.94,0,0,0-.13-.36l-.31-.79c-.12-.29-.23-.58-.31-.8l-.16-.35Z"/><path class="cls-2" d="M101.43,67l.18.4.36.91.36.91c.1.25.15.42.15.42l-2.24.8a2.78,2.78,0,0,0-.14-.39c-.09-.24-.22-.55-.34-.86s-.25-.63-.34-.86l-.17-.39Z"/><path class="cls-2" d="M96.16,64s.33.57.64,1.15l.6,1.17L95.27,67.4l-.56-1.1c-.14-.27-.31-.54-.42-.74l-.19-.33Z"/><path class="cls-2" d="M86.35,56.88l.87.84.84.87-1.74,1.63-.78-.82-.82-.78Z"/><path class="cls-2" d="M90.91,52l1,1,1,1-1.74,1.63-.92-1-1-.92Z"/><path class="cls-2" d="M91.89,58l.27.31c.16.19.36.45.56.71l.56.71.25.32-1.91,1.42-.23-.3-.53-.67-.53-.67-.25-.29Z"/><path class="cls-2" d="M92.05,63.62l.65,1c.17.25.32.51.43.71l.19.32-2.06,1.2-.17-.31c-.11-.19-.25-.43-.41-.67-.3-.48-.61-1-.61-1Z"/><path class="cls-2" d="M94.78,61.8s.35.56.71,1.11c.18.27.34.55.46.77l.21.35-2.06,1.2-.19-.34c-.12-.2-.27-.47-.44-.73l-.67-1Z"/><path class="cls-2" d="M97.6,59.92l.77,1.2c.19.29.37.6.5.83l.22.39L97,63.53l-.2-.37c-.13-.22-.3-.51-.48-.79-.37-.56-.73-1.13-.73-1.13Z"/><path class="cls-2" d="M83,54l.3.23.66.51c.23.19.48.37.65.52l.28.25-1.53,1.81-.27-.23c-.16-.14-.39-.31-.61-.48s-.45-.35-.61-.49L81.54,56Z"/><path class="cls-2" d="M84.92,51.41l.32.25.71.56c.26.2.52.4.71.56l.31.27-1.54,1.81-.29-.25-.67-.53-.66-.52-.31-.24Z"/><path class="cls-2" d="M86.94,48.69a4.2,4.2,0,0,1,.35.27l.77.6.76.61.34.29-1.54,1.81L87.31,52l-.73-.58-.72-.57-.34-.25Z"/><path class="cls-2" d="M80.91,48.78l.35.21c.22.12.5.28.77.46l1.11.71-1.32,2-1-.66c-.26-.18-.53-.33-.73-.45l-.33-.19Z"/><path class="cls-2" d="M68.84,47.49l.37.08c.22,0,.51.12.8.21l1.17.33-.69,2.27-1.09-.31c-.27-.08-.55-.14-.76-.19l-.34-.08Z"/><path class="cls-2" d="M70.36,41l.43.1c.26.06.6.13.94.24l1.37.38L72.41,44l-1.29-.37c-.32-.09-.65-.17-.9-.22l-.41-.1Z"/><path class="cls-2" d="M74.19,45.65l.38.14.84.33.84.33.38.17-.95,2.18-.35-.15-.8-.32L73.74,48a2.94,2.94,0,0,0-.36-.13Z"/><path class="cls-2" d="M77.14,50.47l1.07.55c.54.29,1.06.6,1.06.6l-1.19,2.06-.31-.18c-.19-.1-.43-.26-.68-.38l-1-.52Z"/><path class="cls-2" d="M78.6,47.54l1.16.6c.58.31,1.15.64,1.15.64l-1.19,2.06-1.08-.61-1.1-.56Z"/><path class="cls-2" d="M80.11,44.5l1.26.65,1.24.7-1.2,2.06s-.57-.35-1.17-.67l-1.19-.61Z"/><path class="cls-2" d="M64.49,46.73l1.2.15c.3,0,.59.1.82.14l.37.06-.42,2.35-.35-.07c-.21,0-.49-.1-.77-.12l-1.12-.15Z"/><path class="cls-2" d="M64.86,43.48l1.3.16c.33,0,.65.11.89.15l.41.07L67,46.2l-.38-.07c-.23,0-.54-.1-.84-.13l-1.23-.16Z"/><path class="cls-2" d="M65.24,40.11l1.41.18c.36,0,.7.11,1,.15l.43.08-.42,2.34-.41-.07c-.25,0-.58-.11-.91-.15L65,42.47Z"/><path class="cls-2" d="M60.07,43.2l1.31,0,.9,0,.41,0-.14,2.37-.39,0-.85,0-1.24,0Z"/><path class="cls-2" d="M49,48.11l1.16-.33c.29-.09.59-.16.81-.21l.37-.08.54,2.31-.35.08c-.21,0-.48.11-.75.19l-1.09.31Z"/><path class="cls-2" d="M47,41.72l1.37-.38c.34-.11.69-.18,1-.24l.43-.1.54,2.31-.41.1c-.25.05-.57.13-.9.22L47.73,44Z"/><path class="cls-2" d="M52.69,43.86l.4-.07c.25,0,.57-.11.89-.15l1.31-.16.27,2.36L54.33,46c-.31,0-.61.1-.84.13l-.38.07Z"/><path class="cls-2" d="M57.65,46.55l.38,0,.83,0,1.21,0v2.38l-1.13,0-.79,0-.35,0Z"/><path class="cls-2" d="M57.45,43.29l.41,0,.9,0,1.31,0v2.37l-1.24,0-.85,0-.38,0Z"/><path class="cls-2" d="M57.24,39.9l.44,0c.27,0,.62,0,1,0l1.41,0v2.38l-1.34,0-.92,0-.42,0Z"/><path class="cls-2" d="M44.82,49.63l.35-.16.77-.3.77-.31a2.94,2.94,0,0,1,.36-.13l.8,2.24-.33.12-.72.29-.73.28-.32.15Z"/><path class="cls-2" d="M43.52,46.62l.37-.17.84-.33.84-.33.39-.14.8,2.24a2.94,2.94,0,0,0-.36.13l-.79.31-.79.32-.36.15Z"/><path class="cls-2" d="M42.17,43.51l.41-.18.9-.36.91-.36c.25-.1.42-.15.42-.15l.8,2.24-.39.14-.86.34-.86.34-.38.17Z"/><path class="cls-2" d="M39.24,48.78s.56-.33,1.14-.64l1.17-.6,1.06,2.13-1.1.56c-.28.14-.54.31-.75.42l-.33.19Z"/><path class="cls-2" d="M32.09,58.59s.41-.44.83-.87l.88-.84,1.62,1.74-.82.78-.78.82Z"/><path class="cls-2" d="M27.23,54l1-1,1-1,1.63,1.74-1,.92-.93,1Z"/><path class="cls-2" d="M33.17,53.05l.32-.27c.18-.16.44-.36.7-.56l.71-.56.33-.25,1.42,1.91s-.13.09-.31.24l-.67.52-.67.53-.29.25Z"/><path class="cls-2" d="M38.82,52.89l1-.65c.25-.17.51-.32.71-.43l.33-.19,1.19,2.06-.31.17c-.18.11-.43.25-.67.41l-1,.61Z"/><path class="cls-2" d="M37,50.16l1.1-.71c.27-.18.56-.34.77-.46l.36-.21,1.19,2.06-.34.19c-.2.12-.47.27-.72.44l-1,.67Z"/><path class="cls-2" d="M35.13,47.34l1.19-.77.83-.5.39-.22,1.19,2.06-.36.21c-.22.12-.51.29-.79.47l-1.14.73Z"/><path class="cls-2" d="M29.24,62s.09-.13.23-.3L30,61l.51-.65.25-.28,1.82,1.53-.24.27-.48.61-.48.62a3,3,0,0,0-.22.28Z"/><path class="cls-2" d="M26.61,60l.25-.32.56-.71c.21-.26.4-.52.56-.71l.27-.31,1.82,1.54-.26.29-.53.67-.52.67-.24.3Z"/><path class="cls-2" d="M23.89,58l.27-.35c.17-.21.39-.49.6-.77s.44-.56.61-.76l.29-.34,1.82,1.54-.28.31-.57.73-.57.72-.26.34Z"/><path class="cls-2" d="M24,64l.2-.35c.12-.22.29-.5.47-.77.35-.56.71-1.11.71-1.11l2,1.32-.67,1c-.17.26-.33.53-.44.73l-.2.34Z"/><path class="cls-2" d="M22.69,76.1l.09-.37c0-.22.11-.51.2-.8.16-.58.33-1.16.33-1.16l2.28.68s-.16.55-.31,1.09a6,6,0,0,0-.19.76c-.05.2-.08.34-.08.34Z"/><path class="cls-2" d="M16.2,74.58l.1-.43c.06-.26.14-.6.24-.94.19-.69.39-1.37.39-1.37l2.27.69-.36,1.29c-.1.32-.17.65-.23.9s-.09.41-.09.41Z"/><path class="cls-2" d="M20.85,70.75s0-.15.14-.38l.34-.84.33-.84c.1-.22.16-.37.16-.37l2.19.94s-.07.14-.16.35-.2.51-.31.8-.23.57-.32.79-.13.36-.13.36Z"/><path class="cls-2" d="M25.67,67.8l.56-1.07c.28-.54.59-1.06.59-1.06l2.06,1.2-.18.3c-.1.19-.25.43-.38.68l-.52,1Z"/><path class="cls-2" d="M22.74,66.34l.6-1.16C23.65,64.6,24,64,24,64L26,65.23s-.31.53-.6,1.07l-.57,1.1Z"/><path class="cls-2" d="M19.7,64.83l.65-1.26c.34-.62.7-1.23.7-1.23l2.06,1.19s-.34.57-.66,1.17l-.62,1.19Z"/><path class="cls-2" d="M21.93,80.45l.16-1.2c0-.3.1-.59.13-.82l.07-.37,2.34.42s0,.14-.06.35-.1.49-.13.77l-.14,1.12Z"/><path class="cls-2" d="M18.68,80.08s.08-.65.17-1.3c0-.33.1-.65.14-.89s.07-.4.07-.4l2.34.41s0,.16-.06.39-.11.53-.14.83L21,80.35Z"/><path class="cls-2" d="M15.31,79.7l.18-1.41c0-.35.11-.7.16-1s.07-.43.07-.43l2.35.42-.08.41c0,.25-.11.58-.15.91-.08.67-.17,1.34-.17,1.34Z"/><path class="cls-2" d="M18.4,84.87s0-.66,0-1.31c0-.33,0-.66,0-.9s0-.41,0-.41l2.37.14,0,.39c0,.23,0,.54,0,.85,0,.62,0,1.24,0,1.24Z"/><path class="cls-2" d="M23.31,96s-.17-.58-.33-1.16c-.09-.29-.15-.59-.2-.81s-.09-.36-.09-.36L25,93.09l.08.35a5.89,5.89,0,0,0,.19.75c.15.55.31,1.09.31,1.09Z"/><path class="cls-2" d="M16.93,97.9s-.2-.69-.39-1.37c-.1-.34-.18-.69-.24-1l-.1-.43,2.31-.54.1.41c.06.25.13.57.23.9l.36,1.29Z"/><path class="cls-2" d="M19.06,92.25s0-.16-.07-.4-.11-.57-.14-.89c-.09-.65-.17-1.31-.17-1.31L21,89.38l.16,1.23c0,.31.1.61.14.84s.06.38.06.38Z"/><path class="cls-2" d="M21.76,87.29s0-.15,0-.38,0-.53,0-.83l0-1.21h2.38s0,.57,0,1.13c0,.29,0,.57,0,.79s0,.35,0,.35Z"/><path class="cls-2" d="M18.49,87.49s0-.16,0-.41,0-.57,0-.9c0-.66,0-1.31,0-1.31h2.38s0,.62,0,1.24c0,.31,0,.61,0,.85l0,.38Z"/><path class="cls-2" d="M15.1,87.7s0-.18,0-.44,0-.62,0-1l0-1.41h2.37l0,1.34c0,.34,0,.67,0,.92s0,.42,0,.42Z"/><path class="cls-2" d="M24.83,100.12l-.16-.35-.3-.77c-.11-.28-.22-.56-.31-.77s-.12-.36-.12-.36l2.23-.8s0,.13.12.33.19.46.29.73.21.52.29.72l.14.32Z"/><path class="cls-2" d="M21.82,101.42s-.06-.15-.16-.37l-.33-.84c-.13-.31-.25-.61-.34-.84s-.14-.39-.14-.39l2.24-.8s.05.15.13.36l.32.79c.11.29.22.58.31.79l.16.36Z"/><path class="cls-2" d="M18.71,102.77l-.18-.41c-.1-.24-.23-.57-.36-.9l-.36-.91c-.1-.25-.15-.42-.15-.42l2.24-.8s.05.16.14.39.22.55.34.86.25.63.34.86.17.38.17.38Z"/><path class="cls-2" d="M24,105.7s-.34-.56-.65-1.14l-.6-1.17,2.13-1.06.57,1.1c.13.28.3.54.41.75l.19.33Z"/><path class="cls-2" d="M33.8,112.85l-.88-.83-.83-.88,1.73-1.62.78.82.82.78Z"/><path class="cls-2" d="M29.23,117.71l-1-1-1-1L29,114.08s.46.49.93,1l1,.93Z"/><path class="cls-2" d="M28.25,111.77l-.27-.31c-.16-.19-.35-.45-.56-.71s-.4-.52-.56-.71l-.25-.33,1.91-1.42s.09.13.24.31l.52.67c.2.24.38.49.53.67l.26.29Z"/><path class="cls-2" d="M28.09,106.12l-.65-1c-.17-.25-.32-.51-.43-.71l-.19-.33,2.06-1.19.18.31c.1.18.24.43.4.67.31.47.61,1,.61,1Z"/><path class="cls-2" d="M25.37,107.93l-.71-1.1c-.18-.27-.35-.56-.47-.77l-.2-.36L26,104.51l.2.34c.11.2.27.47.44.72.33.53.67,1.05.67,1.05Z"/><path class="cls-2" d="M22.54,109.82l-.76-1.2c-.2-.3-.38-.6-.51-.83l-.22-.39,2.06-1.19.21.36c.12.22.29.51.48.79l.72,1.14Z"/><path class="cls-2" d="M37.18,115.7l-.3-.23-.65-.52-.65-.51-.29-.25,1.54-1.82.26.24.62.48.61.48a3,3,0,0,0,.28.22Z"/><path class="cls-2" d="M35.23,118.33l-.33-.25c-.19-.16-.45-.36-.71-.56s-.52-.4-.71-.56l-.31-.27,1.54-1.82.29.26c.18.15.43.33.67.53l.67.52c.18.15.31.24.31.24Z"/><path class="cls-2" d="M33.2,121.05l-.35-.27-.77-.6-.76-.61-.34-.29,1.54-1.82.32.28.72.57.73.57c.19.16.33.26.33.26Z"/><path class="cls-2" d="M39.24,121l-.36-.2c-.21-.12-.5-.29-.77-.47L37,119.57l1.32-2,1,.67c.26.17.53.33.73.44l.34.2Z"/><path class="cls-2" d="M51.3,122.25l-.36-.09c-.22,0-.52-.11-.81-.2L49,121.63l.68-2.28,1.1.31a5.89,5.89,0,0,0,.75.19l.35.08Z"/><path class="cls-2" d="M49.79,128.74l-.43-.1c-.26-.06-.61-.14-1-.24L47,128l.69-2.27,1.29.36c.33.1.65.17.9.23l.41.09Z"/><path class="cls-2" d="M46,124.09s-.16,0-.39-.15-.53-.21-.84-.33l-.84-.33-.37-.16.94-2.19.36.16.79.31.79.32.36.13Z"/><path class="cls-2" d="M43,119.27l-1.08-.56c-.53-.28-1-.59-1-.59l1.19-2.06.31.18c.18.1.42.25.68.38l1,.52Z"/><path class="cls-2" d="M41.55,122.2l-1.17-.6c-.58-.31-1.14-.65-1.14-.65l1.19-2s.53.31,1.07.6l1.11.57Z"/><path class="cls-2" d="M40,125.24l-1.27-.65c-.62-.34-1.23-.7-1.23-.7l1.19-2.06s.58.34,1.17.66l1.2.62Z"/><path class="cls-2" d="M55.66,123l-1.2-.16c-.3,0-.6-.1-.82-.13l-.37-.07.41-2.34.35.06c.21,0,.49.1.77.13l1.13.14Z"/><path class="cls-2" d="M55.28,126.26l-1.3-.17c-.32,0-.64-.1-.89-.14l-.4-.07.42-2.34.38.06c.23,0,.53.11.84.14l1.22.16Z"/><path class="cls-2" d="M54.9,129.63l-1.41-.18c-.35,0-.7-.11-1-.16l-.44-.07.42-2.35.41.08c.25,0,.58.11.92.15l1.33.17Z"/><path class="cls-2" d="M60.07,126.54l-1.31,0c-.33,0-.66,0-.9,0l-.41,0,.15-2.37.38,0,.85,0,1.24,0Z"/><path class="cls-2" d="M71.18,121.63,70,122c-.29.09-.58.15-.8.2l-.37.09-.54-2.32.34-.08a6,6,0,0,0,.76-.19l1.09-.31Z"/><path class="cls-2" d="M73.1,128l-1.37.39c-.34.1-.68.18-.94.24l-.44.1-.54-2.32.41-.09c.25-.06.58-.13.9-.23l1.29-.36Z"/><path class="cls-2" d="M67.45,125.88l-.4.07c-.24,0-.56.11-.89.14l-1.3.17-.27-2.36,1.23-.16c.3,0,.61-.1.83-.14l.39-.06Z"/><path class="cls-2" d="M62.49,123.18l-.38,0-.83,0-1.21,0v-2.38l1.14,0,.78,0,.35,0Z"/><path class="cls-2" d="M62.69,126.45l-.41,0c-.24,0-.57,0-.9,0l-1.31,0v-2.38l1.24,0,.85,0,.39,0Z"/><path class="cls-2" d="M62.9,129.84l-.44,0-1,0-1.42,0v-2.37l1.34,0c.34,0,.68,0,.93,0l.42,0Z"/><path class="cls-2" d="M75.32,120.11l-.34.16-.78.3-.77.31-.35.12-.81-2.23a3.24,3.24,0,0,0,.33-.12l.73-.29.72-.29.33-.14Z"/><path class="cls-2" d="M76.62,123.12l-.37.16-.84.34-.84.33-.39.14-.8-2.24.36-.13.79-.32.8-.31.35-.16Z"/><path class="cls-2" d="M78,126.23l-.4.18-.91.36-.91.36c-.25.1-.42.15-.42.15l-.8-2.24.39-.14.86-.34.86-.34.39-.17Z"/><path class="cls-2" d="M80.91,121s-.57.34-1.15.65l-1.17.6-1-2.13,1.1-.57c.27-.13.54-.3.74-.41l.33-.19Z"/><path class="cls-2" d="M88.06,111.14l-.84.88-.87.83-1.63-1.73.82-.78.78-.82Z"/><path class="cls-2" d="M92.92,115.71l-1,1-1,1L89.28,116l1-.93.92-1Z"/><path class="cls-2" d="M87,116.69l-.31.27c-.19.16-.45.35-.71.56l-.71.56-.32.25-1.42-1.91.3-.24.67-.52.67-.53c.18-.15.29-.26.29-.26Z"/><path class="cls-2" d="M81.32,116.85l-1,.65c-.25.17-.51.32-.71.43l-.32.19-1.2-2.06.31-.18c.19-.1.43-.24.67-.4l1-.61Z"/><path class="cls-2" d="M83.14,119.57l-1.11.71c-.27.18-.55.35-.77.47l-.35.2-1.2-2,.34-.2c.2-.11.47-.27.73-.44l1-.67Z"/><path class="cls-2" d="M85,122.4l-1.2.76c-.29.2-.6.38-.83.51l-.39.22-1.19-2.06.37-.21c.22-.12.51-.29.79-.48l1.13-.72Z"/><path class="cls-2" d="M90.9,107.76l-.23.3-.51.65c-.19.24-.37.48-.52.65l-.25.29-1.81-1.54.23-.26c.14-.17.31-.39.48-.62l.49-.61c.13-.16.21-.28.21-.28Z"/><path class="cls-2" d="M93.53,109.71l-.25.33-.56.71c-.2.26-.4.52-.56.71l-.27.31-1.81-1.54.25-.29.53-.67.52-.67c.15-.18.24-.31.24-.31Z"/><path class="cls-2" d="M96.25,111.74s-.1.14-.27.35l-.6.77c-.22.28-.44.56-.61.76l-.29.34-1.81-1.54.27-.32.58-.72.57-.73.25-.33Z"/><path class="cls-2" d="M96.16,105.7s-.08.15-.21.36-.28.5-.46.77c-.36.55-.71,1.11-.71,1.11l-2-1.32.67-1c.17-.26.32-.53.44-.73l.19-.34Z"/><path class="cls-2" d="M97.45,93.64l-.08.36c-.05.23-.12.52-.21.81-.16.58-.33,1.16-.33,1.16l-2.27-.68s.15-.55.31-1.09c.08-.28.14-.55.19-.76l.08-.35Z"/><path class="cls-2" d="M103.94,95.15l-.1.43a8.26,8.26,0,0,1-.24,1l-.38,1.37-2.28-.69.37-1.29c.09-.33.17-.65.22-.9l.1-.41Z"/><path class="cls-2" d="M99.29,99s-.05.16-.14.39l-.33.84-.33.84-.17.37-2.18-.94.16-.36c.08-.21.19-.5.31-.79l.31-.79a2.94,2.94,0,0,0,.13-.36Z"/><path class="cls-2" d="M94.47,101.93,93.92,103c-.29.53-.6,1-.6,1l-2.06-1.19.18-.31c.1-.18.26-.42.38-.67l.52-1Z"/><path class="cls-2" d="M97.4,103.39l-.6,1.17c-.31.58-.64,1.14-.64,1.14l-2.06-1.19s.32-.53.61-1.07l.56-1.11Z"/><path class="cls-2" d="M100.44,104.9l-.65,1.27c-.33.62-.7,1.23-.7,1.23L97,106.21s.35-.58.67-1.17l.61-1.2Z"/><path class="cls-2" d="M98.21,89.28l-.15,1.2c0,.3-.1.6-.14.82s-.06.38-.06.38l-2.34-.42s0-.14.06-.35.1-.49.12-.77L95.85,89Z"/><path class="cls-2" d="M101.46,89.66,101.3,91c0,.32-.11.64-.15.89s-.07.4-.07.4l-2.34-.42s0-.15.07-.38.1-.53.13-.84l.16-1.22Z"/><path class="cls-2" d="M104.83,90l-.18,1.41c0,.35-.11.7-.15,1l-.08.44-2.34-.42.07-.41c0-.25.12-.58.15-.92.09-.66.17-1.33.17-1.33Z"/><path class="cls-2" d="M101.75,84.87l0,1.31c0,.33,0,.66,0,.9s0,.41,0,.41l-2.37-.15,0-.38c0-.23,0-.54,0-.85l0-1.24Z"/></g><path class="cls-2" d="M73.39,111.61a3.36,3.36,0,0,0,1.51.35c.87,0,1.37-.38,1.37-.93s-.35-.8-1.23-1.08c-1.07-.32-1.74-.8-1.74-1.56s.85-1.49,2.13-1.49a3.38,3.38,0,0,1,1.44.27l-.23.58a2.8,2.8,0,0,0-1.24-.26c-.9,0-1.24.44-1.24.82s.4.76,1.31,1c1.11.36,1.66.81,1.66,1.61s-.74,1.59-2.29,1.59a4,4,0,0,1-1.67-.36Z"/><path class="cls-2" d="M81.1,107v3.25c0,1.22.65,1.74,1.53,1.74s1.6-.54,1.6-1.74V107h.85v3.2a2.2,2.2,0,0,1-2.48,2.37,2.11,2.11,0,0,1-2.36-2.34V107Z"/><path class="cls-2" d="M92.51,107h.86v4.88h2.8v.6H92.51Z"/><path class="cls-2" d="M100.92,105.75l-1.25,1H99l.91-1Zm-1,1.24v5.48h-.85V107Z"/><path class="cls-2" d="M103.35,112.47V107h.93l2.1,2.77a15.21,15.21,0,0,1,1.16,1.78h0a22.47,22.47,0,0,1-.09-2.25V107h.8v5.48h-.86l-2.09-2.78a15.18,15.18,0,0,1-1.21-1.83h0c0,.69,0,1.35,0,2.26v2.34Z"/><path class="cls-2" d="M115.1,109.9h-2.55v2h2.85v.6h-3.7V107h3.55v.6h-2.7v1.73h2.55Z"/><path class="cls-2" d="M119.51,110.75l-.68,1.72H118l2.24-5.48h1l2.24,5.48h-.91l-.7-1.72Zm2.16-.56-.65-1.57c-.14-.36-.24-.69-.34-1h0c-.1.31-.19.66-.33,1l-.64,1.58Z"/><path class="cls-2" d="M130.38,107.07a13.44,13.44,0,0,1,1.8-.12,4.4,4.4,0,0,1,2.66.68,2.34,2.34,0,0,1,.94,2,2.69,2.69,0,0,1-.95,2.13,4.63,4.63,0,0,1-2.91.79c-.62,0-1.11,0-1.54-.07Zm.84,4.85c.22,0,.53,0,.86,0,1.82,0,2.8-.85,2.8-2.32,0-1.3-.87-2.12-2.66-2.12a5.8,5.8,0,0,0-1,.08Z"/><path class="cls-2" d="M142.21,109.9h-2.55v2h2.85v.6h-3.7V107h3.55v.6h-2.7v1.73h2.55Z"/><path class="cls-2" d="M150.42,107.59h-2V107h4.87v.6h-2v4.88h-.86Z"/><path class="cls-2" d="M159.36,109.9h-2.55v2h2.85v.6H156V107h3.55v.6h-2.7v1.73h2.55Z"/><path class="cls-2" d="M167.29,112.3a4.93,4.93,0,0,1-1.74.26c-1.85,0-3.23-1-3.23-2.78s1.39-2.88,3.43-2.88a4.1,4.1,0,0,1,1.56.25l-.22.57a3.52,3.52,0,0,0-1.31-.22c-1.54,0-2.56.82-2.56,2.26s.92,2.2,2.51,2.2a3.91,3.91,0,0,0,1.39-.23Z"/><path class="cls-2" d="M170.31,112.47V107h.93l2.1,2.77a14.18,14.18,0,0,1,1.17,1.78h0a19.71,19.71,0,0,1-.1-2.25V107h.8v5.48h-.86l-2.08-2.78a15.3,15.3,0,0,1-1.22-1.83h0c0,.69.06,1.35.06,2.26v2.34Z"/><path class="cls-2" d="M184.28,109.67a2.81,2.81,0,0,1-3.05,2.89,2.74,2.74,0,0,1-2.95-2.79,2.83,2.83,0,0,1,3-2.88A2.72,2.72,0,0,1,184.28,109.67Zm-5.1.09a2.11,2.11,0,1,0,2.11-2.29A2.08,2.08,0,0,0,179.18,109.76Z"/><path class="cls-2" d="M187.32,107h.86v4.88H191v.6h-3.67Z"/><path class="cls-2" d="M199.11,109.67a2.81,2.81,0,0,1-3.05,2.89,2.74,2.74,0,0,1-2.95-2.79,2.83,2.83,0,0,1,3-2.88A2.72,2.72,0,0,1,199.11,109.67Zm-5.1.09a2.11,2.11,0,1,0,2.11-2.29A2.08,2.08,0,0,0,194,109.76Z"/><path class="cls-2" d="M207.17,112.22a6.71,6.71,0,0,1-2,.3,3.81,3.81,0,0,1-2.46-.72,2.58,2.58,0,0,1-.92-2c0-1.63,1.36-2.82,3.56-2.82a4.71,4.71,0,0,1,1.65.25l-.22.57a4,4,0,0,0-1.45-.23c-1.6,0-2.64.83-2.64,2.2s1,2.21,2.53,2.21a3.22,3.22,0,0,0,1.13-.15v-1.63H205v-.57h2.16Z"/><path class="cls-2" d="M212.26,105.75l-1.25,1h-.69l.91-1Zm-1,1.24v5.48h-.86V107Z"/><path class="cls-2" d="M215.75,110.75l-.68,1.72h-.88l2.24-5.48h1l2.25,5.48h-.91l-.7-1.72Zm2.16-.56-.65-1.57c-.15-.36-.24-.69-.34-1h0c-.1.31-.2.66-.33,1l-.65,1.58Z"/><path class="cls-2" d="M76.28,90.28H72.56V87.66H83.15v2.62H79.39v11.16H76.28Z"/><path class="cls-2" d="M91.7,97H87.86v2.48h4.29v1.93H85.51V91h6.42V93H87.86v2.17H91.7Z"/><path class="cls-2" d="M102.16,101.16a6.87,6.87,0,0,1-2.66.45c-3.6,0-5.45-2.26-5.45-5.23,0-3.55,2.53-5.52,5.69-5.52a5.85,5.85,0,0,1,2.56.47l-.49,1.85a5,5,0,0,0-2-.38,3.43,3.43,0,0,0,0,6.85,5.57,5.57,0,0,0,2-.34Z"/><path class="cls-2" d="M106.86,91v4h3.89V91h2.35v10.42h-2.35V97.08h-3.89v4.36h-2.35V91Z"/><path class="cls-2" d="M115.92,101.44V91h2.76l2.16,3.82a32.44,32.44,0,0,1,1.7,3.57h0a42.83,42.83,0,0,1-.18-4.36V91h2.16v10.42h-2.47l-2.23-4A35.91,35.91,0,0,1,118,93.74H118c.08,1.39.11,2.86.11,4.56v3.14Z"/><path class="cls-2" d="M136.91,96.12c0,3.43-2.06,5.49-5.12,5.49s-4.9-2.33-4.9-5.32,2-5.46,5.07-5.46S136.91,93.23,136.91,96.12Zm-7.53.13c0,2,1,3.49,2.53,3.49s2.51-1.52,2.51-3.54-.89-3.5-2.51-3.5S129.38,94.22,129.38,96.25Z"/><path class="cls-2" d="M139.24,91h2.35v8.44h4.14v2h-6.49Z"/><path class="cls-2" d="M156.85,96.12c0,3.43-2.06,5.49-5.12,5.49s-4.9-2.33-4.9-5.32,2-5.46,5.07-5.46S156.85,93.23,156.85,96.12Zm-7.53.13c0,2,1,3.49,2.54,3.49s2.5-1.52,2.5-3.54-.88-3.5-2.5-3.5S149.32,94.22,149.32,96.25Z"/><path class="cls-2" d="M167.88,101a11.63,11.63,0,0,1-3.48.59,5.88,5.88,0,0,1-4.24-1.39,5.27,5.27,0,0,1-1.47-3.81c0-3.46,2.54-5.44,5.95-5.44a7.66,7.66,0,0,1,2.9.49l-.5,1.91a5.36,5.36,0,0,0-2.41-.45,3.4,3.4,0,0,0-.17,6.79,3.8,3.8,0,0,0,1.14-.14v-2.2H164V95.47h3.89Z"/><path class="cls-2" d="M172.9,101.44V97.17L169.61,91h2.7l1.05,2.5c.33.76.56,1.32.81,2h0c.23-.65.48-1.25.79-2l1-2.5h2.64l-3.43,6.08v4.34Z"/><path class="cls-2" d="M184.83,87.66h3.11V98.82h5.48v2.62h-8.59Z"/><path class="cls-2" d="M198.32,91v10.42H196V91Z"/><path class="cls-2" d="M201.13,101.44V91h2.75l2.17,3.82a34.37,34.37,0,0,1,1.7,3.57h0a42.71,42.71,0,0,1-.19-4.36V91h2.17v10.42h-2.48l-2.22-4a34,34,0,0,1-1.81-3.68h-.06c.07,1.39.1,2.86.1,4.56v3.14Z"/><path class="cls-2" d="M218.77,97h-3.83v2.48h4.28v1.93h-6.63V91H219V93h-4.06v2.17h3.83Z"/></svg>