<svg id="Capa_1" data-name="Capa 1" xmlns="http://www.w3.org/2000/svg" viewBox="0 0 595.28 566.93"><defs><style>.cls-1{fill:#fff;fill-rule:evenodd;}</style></defs><path class="cls-1" d="M81.49,67.31V249.53l16.2-37.78h28l9.19,21.16V211.75h34.84L175.23,227l5.31-15.29H336.92v7.69a33.74,33.74,0,0,1,21.74-7.69l50.74.18,9,20.88V211.75h29.16l8,12v-12H485v67.87H455.61l-7.69-12v12H405.09l-4.31-10.7H389.27L385,279.62H356a28.72,28.72,0,0,1-19.06-7.53v7.53h-43.8l-8.69-10.7v10.7H121.57l-4.31-10.7H105.78l-4.27,10.7h-20v220h432.3V363.87s-6.82,4.62-14.71,4.68H354.64L346,357.85v10.7H317.46V350.29s-3.89,2.55-12.3,2.55h-9.7v15.71H252.34l-7.7-10.26-7.82,10.26H165.41V300.68h71.86L245,310.73l8-10.05H513.79V67.31Z"/><path class="cls-1" d="M103.43,220.12,81.57,270.94H95.8l4-10.18h23.45l4,10.18h14.55L120,220.12Zm8.09,11.82,7.14,17.79H104.35l7.17-17.79Z"/><polygon class="cls-1" points="143.34 270.93 143.34 220.11 163.56 220.18 175.32 252.95 186.81 220.11 206.87 220.11 206.87 270.93 194.16 270.93 194.16 233.48 180.69 270.93 169.55 270.93 156.04 233.48 156.04 270.93 143.34 270.93 143.34 270.93"/><polygon class="cls-1" points="215.56 270.93 215.56 220.11 257.02 220.11 257.02 231.47 228.4 231.47 228.4 240.17 256.35 240.17 256.35 250.87 228.4 250.87 228.4 259.89 257.02 259.89 257.02 270.93 215.56 270.93 215.56 270.93"/><path class="cls-1" d="M264.37,220.12v50.82h12.71V252.88h5.35l15.23,18.06h15.52l-16.71-18.73a15.48,15.48,0,0,0,13.94-15.61c0-10.69-8.4-16.48-17.77-16.48Zm12.71,11.36H291.6c3.48,0,6,2.73,6,5.35,0,3.38-3.29,5.35-5.83,5.35H277.08v-10.7Z"/><polygon class="cls-1" points="328.56 270.93 315.59 270.93 315.59 220.11 328.56 220.11 328.56 270.93 328.56 270.93"/><path class="cls-1" d="M359.32,270.93h-2.8c-13.54,0-21.77-10.68-21.77-25.2,0-14.89,8.13-25.62,25.24-25.62h14v12H359.48c-7,0-11.86,5.42-11.86,13.71,0,9.84,5.62,14,13.71,14h3.34l-5.35,11.1Z"/><path class="cls-1" d="M387,220.12l-21.86,50.82h14.23l4-10.18h23.44l4,10.18h14.55l-21.84-50.82Zm8.09,11.82,7.14,17.79H387.89l7.17-17.79Z"/><polygon class="cls-1" points="426.86 270.93 426.86 220.11 443.01 220.11 463.64 252.04 463.64 220.11 476.34 220.11 476.34 270.93 460.71 270.93 439.56 238.16 439.56 270.93 426.86 270.93 426.86 270.93"/><polygon class="cls-1" points="174.1 359.86 174.1 309.04 215.56 309.04 215.56 320.41 186.94 320.41 186.94 329.1 214.89 329.1 214.89 339.8 186.94 339.8 186.94 348.83 215.56 348.83 215.56 359.86 174.1 359.86 174.1 359.86"/><polygon class="cls-1" points="377.24 359.86 377.24 309.04 418.7 309.04 418.7 320.41 390.08 320.41 390.08 329.1 417.9 329.1 417.9 339.8 390.08 339.8 390.08 348.83 418.7 348.83 418.7 359.86 377.24 359.86 377.24 359.86"/><polygon class="cls-1" points="217.17 359.86 237.35 334.76 216.69 309.04 232.69 309.04 245 324.94 257.35 309.04 272.73 309.04 252.34 334.45 272.56 359.86 256.55 359.86 244.6 344.21 232.94 359.86 217.17 359.86 217.17 359.86"/><path class="cls-1" d="M274.07,309.05v50.82h13V343.82h13.37c11.32,0,19.89-6,19.89-17.68,0-9.67-6.72-17.09-18.24-17.09Zm13,11.49h14.08c3.66,0,6.27,2.24,6.27,5.85,0,3.4-2.6,5.86-6.31,5.86h-14V320.54Z"/><path class="cls-1" d="M325.89,309v50.82h12.7V341.81h5.35l15.24,18.05H374.7L358,341.14a15.47,15.47,0,0,0,13.93-15.61c0-10.7-8.39-16.49-17.76-16.49Zm12.7,11.37h14.53c3.48,0,6,2.72,6,5.35,0,3.38-3.28,5.35-5.83,5.35H338.59v-10.7Z"/><path class="cls-1" d="M424.59,359.86v-11H450c3.77,0,5.39-2,5.39-4.26s-1.62-4.3-5.39-4.3H438.52c-10,0-15.55-6.09-15.55-15.22,0-8.15,5.1-16,19.94-16h24.74l-5.35,11.44H440.9c-4.09,0-5.35,2.14-5.35,4.19a4.43,4.43,0,0,0,4.68,4.43h12c11.13,0,16,6.32,16,14.59,0,8.89-5.38,16.17-16.57,16.17Z"/><path class="cls-1" d="M471.22,359.86v-11h24.35c3.76,0,5.39-2,5.39-4.26s-1.63-4.3-5.39-4.3H485.15c-10,0-15.55-6.09-15.55-15.22,0-8.15,5.1-16,19.94-16h24.25l-5.35,11.44H487.53c-4.09,0-5.35,2.14-5.35,4.19a4.43,4.43,0,0,0,4.68,4.43h11c11.14,0,16,6.32,16,14.59,0,8.89-5.39,16.17-16.57,16.17Z"/></svg>