<svg id="Capa_1" data-name="Capa 1" xmlns="http://www.w3.org/2000/svg" viewBox="0 0 595.28 566.93"><defs><style>.cls-1{fill:#fff;}</style></defs><path class="cls-1" d="M532.43,475.76v1h.91a.94.94,0,0,0,.49-.12.44.44,0,0,0,.18-.38.4.4,0,0,0-.18-.36.85.85,0,0,0-.49-.12h-.91Zm.92-.7a1.71,1.71,0,0,1,1.09.32,1.07,1.07,0,0,1,.39.87,1,1,0,0,1-.31.76,1.5,1.5,0,0,1-.88.36l1.22,1.39h-.94l-1.12-1.38h-.37v1.38h-.78v-3.69h1.7Zm-.25,5a3.06,3.06,0,0,0,1.2-.24,3.16,3.16,0,0,0,1-.67,3,3,0,0,0,.66-1,3.17,3.17,0,0,0,0-2.42,3.13,3.13,0,0,0-.66-1,3,3,0,0,0-1-.66,2.92,2.92,0,0,0-1.2-.23,3.09,3.09,0,0,0-2.22.89,3.15,3.15,0,0,0-.65,3.42,3,3,0,0,0,.65,1,3.17,3.17,0,0,0,1,.66,2.86,2.86,0,0,0,1.22.24m0-7.08a4,4,0,0,1,2.87,1.17,3.84,3.84,0,0,1,.87,1.27,4,4,0,0,1,0,3.09,4,4,0,0,1-2.15,2.12,3.77,3.77,0,0,1-1.59.32,3.85,3.85,0,0,1-1.6-.32,4.3,4.3,0,0,1-1.3-.85,4.22,4.22,0,0,1-.85-1.31,4,4,0,0,1,0-3.09,3.81,3.81,0,0,1,.86-1.27,3.93,3.93,0,0,1,1.3-.86,4.19,4.19,0,0,1,1.6-.32M158.8,458.69c0-7.05,4.62-12.84,12.17-12.84,7.22,0,12.08,5.54,12.08,12.84s-4.86,12.85-12.08,12.85c-7.55,0-12.17-5.8-12.17-12.85m32.48,0V438.62h-8.72v4.89c-2.77-3.61-7-5.88-12.68-5.88-11.24,0-20.07,8.82-20.07,21.07s8.82,21.07,20.07,21.07c5.71,0,9.91-2.27,12.68-5.88v4.87h8.71V458.69Zm294.79,0c0-7.05,4.62-12.84,12.17-12.84,7.23,0,12.09,5.54,12.09,12.84s-4.86,12.85-12.09,12.85c-7.55,0-12.17-5.8-12.17-12.85m32.49,0V422.51h-8.73v21c-2.77-3.61-7-5.88-12.67-5.88-11.25,0-20.07,8.82-20.07,21.07s8.82,21.07,20.07,21.07c5.71,0,9.9-2.27,12.67-5.88v4.87h8.73Zm-219-13.26c5.63,0,9.24,3.53,10.16,9.74H288.9c.93-5.8,4.45-9.74,10.67-9.74m.17-7.82c-11.76,0-20,8.56-20,21.07,0,12.76,8.56,21.07,20.57,21.07,6.05,0,11.58-1.51,16.45-5.62l-4.28-6.47a19.1,19.1,0,0,1-11.67,4.2c-5.62,0-10.74-2.6-12-9.83h29.79c.09-1.08.18-2.18.18-3.35-.09-12.51-7.83-21.07-19.06-21.07m105.34,21.07c0-7.05,4.62-12.85,12.17-12.85,7.22,0,12.09,5.55,12.09,12.85s-4.87,12.84-12.09,12.84c-7.55,0-12.17-5.79-12.17-12.84m32.48,0V438.62h-8.72v4.89c-2.78-3.61-7-5.88-12.67-5.88-11.25,0-20.07,8.82-20.07,21.07s8.82,21.07,20.07,21.07c5.7,0,9.89-2.27,12.67-5.88v4.87h8.72V458.69Zm-81.75,0c0,12.17,8.47,21.07,21.4,21.07,6.05,0,10.07-1.35,14.43-4.79l-4.19-7a17.68,17.68,0,0,1-10.52,3.61c-7-.08-12.08-5.12-12.08-12.84s5.12-12.76,12.08-12.85a17.73,17.73,0,0,1,10.52,3.61l4.19-7.05c-4.37-3.44-8.39-4.78-14.43-4.78-12.93,0-21.4,8.89-21.4,21.07m112.47-21.07a11.85,11.85,0,0,0-10.58,5.88v-4.87h-8.64v40.12h8.73V456.25c0-6.64,2.85-10.33,8.56-10.33a14.29,14.29,0,0,1,5.45,1l2.69-8.22a18.54,18.54,0,0,0-6.21-1.09m-233.86,4.19c-4.19-2.76-10-4.19-16.36-4.19-10.16,0-16.71,4.87-16.71,12.84,0,6.54,4.88,10.58,13.85,11.84l4.12.58c4.78.67,7,1.93,7,4.2,0,3.1-3.18,4.87-9.14,4.87a21.35,21.35,0,0,1-13.35-4.2l-4.1,6.81c4.79,3.52,10.83,5.2,17.37,5.2,11.59,0,18.31-5.45,18.31-13.09,0-7.05-5.29-10.74-14-12l-4.11-.6c-3.78-.49-6.81-1.25-6.81-3.94,0-2.93,2.86-4.69,7.64-4.69a25.87,25.87,0,0,1,12.51,3.44l3.78-7.06ZM347,437.62a11.83,11.83,0,0,0-10.57,5.88v-4.88h-8.65v40.12h8.73V456.25c0-6.64,2.85-10.33,8.55-10.33a14.37,14.37,0,0,1,5.46,1l2.69-8.22a18.55,18.55,0,0,0-6.22-1.09m-74.44,1H258.27V426.45h-8.82v12.17h-8.14v8h8.14v18.3c0,9.31,3.61,14.85,13.93,14.85a20.5,20.5,0,0,0,10.92-3.1l-2.52-7.47a16.14,16.14,0,0,1-7.73,2.27c-4.36,0-5.78-2.69-5.78-6.72V446.6h14.27ZM142.1,478.75V453.57c0-9.48-6-15.86-15.79-15.94-5.12-.09-10.4,1.5-14.1,7.13-2.76-4.45-7.13-7.13-13.26-7.13-4.28,0-8.47,1.25-11.75,5.95v-5H78.47v40.12h8.8V456.5c0-7,3.86-10.67,9.83-10.67,5.79,0,8.72,3.78,8.72,10.58v22.33h8.82V456.49c0-7,4-10.66,9.82-10.66,6,0,8.8,3.77,8.8,10.57v22.33Z"/><path class="cls-1" d="M537.4,345.3v-5.87h-1.53l-1.77,4-1.75-4h-1.54v5.87h1.09v-4.42l1.65,3.81h1.13l1.65-3.82v4.43Zm-9.69,0v-4.87h1.95v-1h-5v1h2v4.87h1.09Z"/><path class="cls-1" d="M239.92,251.66a150.82,150.82,0,0,1,57.71-118.8,151.11,151.11,0,1,0,0,237.6,150.85,150.85,0,0,1-57.71-118.8"/><path class="cls-1" d="M542.12,251.66a151.11,151.11,0,0,1-244.49,118.8,151.12,151.12,0,0,0,0-237.6,151.11,151.11,0,0,1,244.49,118.8"/><path class="cls-1" d="M266.25,166.39c1.58-2.31,3.23-4.57,4.93-6.79C269.48,161.82,267.83,164.08,266.25,166.39Z"/><path class="cls-1" d="M250.42,196.19c1.05-2.64,2.16-5.24,3.35-7.81C252.58,191,251.47,193.55,250.42,196.19Z"/><path class="cls-1" d="M242.92,251.66a146.67,146.67,0,0,0,15.36,65.76,149.62,149.62,0,0,0,39.35,49.2A149.5,149.5,0,0,0,337,317.42a148.38,148.38,0,0,0,0-131.53,149.46,149.46,0,0,0-39.36-49.19,149.56,149.56,0,0,0-39.35,49.19A146.71,146.71,0,0,0,242.92,251.66Z"/><path class="cls-1" d="M279.25,150q2.82-3.09,5.81-6Q282.08,146.87,279.25,150Z"/><path class="cls-1" d="M250.42,307.12q-1.56-4-2.91-8Q248.86,303.16,250.42,307.12Z"/><path class="cls-1" d="M276.48,350.22q-4.11-4.77-7.81-9.87Q272.38,345.45,276.48,350.22Z"/><path class="cls-1" d="M261.7,329.85q-3.29-5.4-6.1-11.09Q258.42,324.45,261.7,329.85Z"/><path class="cls-1" d="M253.77,188.38a149.71,149.71,0,0,1,10.16-18.48A149.71,149.71,0,0,0,253.77,188.38Z"/><path class="cls-1" d="M248.91,200.18A151.94,151.94,0,0,0,246.23,295a151.94,151.94,0,0,1,2.68-94.82Z"/></svg>