<svg id="Capa_1" data-name="Capa 1" xmlns="http://www.w3.org/2000/svg" viewBox="0 0 750 750"><path d="M110.05,409.25c0-11.3-.86-22.69.22-33.89,1.31-13.63,9.07-24,20.53-31.37,2.9-1.85,3.43-3.87,3.44-6.88.18-35.17,5.77-69.36,19.54-101.89,20.71-48.93,56.29-83,105.17-103.18,21.66-9,44.3-14.25,67.57-17.24A383.56,383.56,0,0,1,405.73,113c46.51,3.67,90.39,15.48,128.6,43.64,31.42,23.17,52.88,53.69,65.89,90.34,10.13,28.56,14.67,58.08,15,88.3,0,4.27,1,7,4.93,9.71,13.07,9.11,19.86,22.08,20,38.12.2,17.16-.14,34.32.09,51.48.35,26.37-22,47.78-45.79,47.42-10.16-.15-20.33.26-30.49,0-3.79-.1-5.54,1.16-6.81,4.62A220.79,220.79,0,0,1,525.85,544c-30.31,40.09-68,70-117.12,84.15-34.8,10-67.76,3.91-99.26-11.8-55.68-27.77-94-71.62-117-129.14-1.52-3.8-3.06-5.41-7.34-5.29-10.82.3-21.67.26-32.49-.07-20-.62-39-17.52-42.43-37.26a34.86,34.86,0,0,1-.94-5.38c-.09-10,0-20,0-30ZM301.31,263.88l-1.45.22c-.25,4.46-.23,8.94-.81,13.35-3,22.93-10.82,44-25.37,62.19-15.85,19.86-35.55,33.64-61,38.24-2.65.48-3.44,1.68-3.51,4.32-.61,23.34.11,46.56,6.21,69.26,1.65,6.12,3.33,12.69,6.88,17.74,7.17,10.21,17.69,17,28.66,22.68,22.16,11.53,46.26,15.71,70.81,18.06,4.24.4,7.6-.22,10.15-4.14,1.31-2,3.52-3.52,5.54-4.95,17.45-12.38,44.1-13.18,62.25-2,20.47,12.67,21.27,35,1.65,48.17-11.53,7.77-24.57,10.09-38.05,8.63-14.07-1.54-26.68-6.58-35.17-19-.69-1-2.43-1.58-3.76-1.75-3.78-.51-7.6-.68-11.4-1-22.42-2-44.22-6.49-64.86-15.8a19.51,19.51,0,0,0-3.25-.72c3.72,4.81,6.79,8.93,10,12.93A204.9,204.9,0,0,0,333,590.49c28.93,12.69,57.38,12,86-1.15A202.59,202.59,0,0,0,476.66,550c49.59-48.46,68.1-107.89,63.19-176.1-.69-9.64-5.24-14.12-12-18.49-28.78-18.59-61.15-25.8-95.45-30.31,7,8.75,12,17.5,14.6,28.37-15.55-11.16-33.05-15.38-50.07-20.53-34-10.3-64.19-26.14-85.69-55.56C307.93,272.89,304.61,268.39,301.31,263.88ZM587.17,336c0-1.77.06-2.92,0-4.06-1.5-24.9-4.6-49.47-12.77-73.25-11.81-34.4-31.7-62.61-62-83.17C482,154.82,447.72,145.72,411.69,141.9a351.13,351.13,0,0,0-72.26-.12c-20,2-39.66,5.62-58.7,12.15-47.26,16.2-81.79,46.36-101.26,92.87-8.06,19.25-12.63,39.41-15.14,60-1.15,9.5-1.53,19.09-2.3,29.13,5.68,0,10.66.2,15.59-.15,1.23-.09,3-1.81,3.38-3.1,4.55-17.07,7.76-34.59,13.5-51.24C205.78,248.79,224.68,221,252.66,200c29.74-22.28,64-32.3,100.46-35,29.48-2.15,58.72-.43,87.43,7.71,50.82,14.41,86.54,46.13,108.48,93.74A242.88,242.88,0,0,1,568.22,332c.4,2.59,1.19,4.21,4.37,4C577.22,335.76,581.88,336,587.17,336Z"/><path d="M305.69,425.88c-14.7,0-27.31-12.62-27.38-27.33s12.46-27.29,27.23-27.51c14.58-.22,27.47,12.44,27.65,27.14S320.58,425.9,305.69,425.88Z"/><path d="M443.67,425.88c-14.73,0-27.41-12.64-27.41-27.29,0-14.93,12.91-27.77,27.7-27.55s27.15,12.87,27.18,27.57C471.17,413.15,458.32,425.91,443.67,425.88Z"/><path d="M375,746A371.09,371.09,0,0,1,230.59,33.16,371.09,371.09,0,0,1,519.41,716.84,368.63,368.63,0,0,1,375,746Zm0-732C175.94,14,14,175.94,14,375S175.94,736,375,736,736,574.06,736,375,574.06,14,375,14Z"/></svg>