<svg id="Capa_1" data-name="Capa 1" xmlns="http://www.w3.org/2000/svg" viewBox="0 0 750 750"><defs><style>.cls-1{fill-rule:evenodd;}</style></defs><path d="M375,746A371.09,371.09,0,0,1,230.59,33.16,371.09,371.09,0,0,1,519.41,716.84,368.63,368.63,0,0,1,375,746Zm0-732C175.94,14,14,175.94,14,375S175.94,736,375,736,736,574.06,736,375,574.06,14,375,14Z"/><path class="cls-1" d="M154,200.54H596a44.11,44.11,0,0,1,44,44V505.44a44.11,44.11,0,0,1-44,44H154a44.11,44.11,0,0,1-44-44V244.56a44.11,44.11,0,0,1,44-44ZM596,225H154a19.67,19.67,0,0,0-19.56,19.56V505.44A19.65,19.65,0,0,0,154,525H596a19.63,19.63,0,0,0,19.56-19.55V244.56A19.65,19.65,0,0,0,596,225Z"/><polygon points="635.92 277.14 635.92 333.36 635.92 341.52 627.77 341.52 122.23 341.52 114.08 341.52 114.08 333.36 114.08 277.14 114.08 268.99 122.23 268.99 627.77 268.99 635.92 268.99 635.92 277.14"/><path d="M201.3,391.3a48.75,48.75,0,0,1,16.9,3c.46.17.93.35,1.38.54a57.56,57.56,0,0,0-5.73,5,57.07,57.07,0,0,0,0,80.72,59,59,0,0,0,5.73,5l-1.38.53a48.92,48.92,0,1,1-16.9-94.83Z"/><path d="M219.62,405.63a48.91,48.91,0,1,1-14.33,34.59A48.77,48.77,0,0,1,219.62,405.63Z"/><path class="cls-1" d="M348,428h52.24c6.36,0,11.52,5.48,11.52,12.23s-5.16,12.23-11.52,12.23H348c-6.36,0-11.52-5.47-11.52-12.23S341.65,428,348,428Zm91,0h52.24c6.36,0,11.51,5.48,11.51,12.23s-5.15,12.23-11.51,12.23H439c-6.36,0-11.52-5.47-11.52-12.23S432.64,428,439,428Zm91,0h52.23c6.36,0,11.52,5.48,11.52,12.23s-5.16,12.23-11.52,12.23H530c-6.36,0-11.52-5.47-11.52-12.23S523.63,428,530,428Z"/></svg>