<svg id="Capa_1" data-name="Capa 1" xmlns="http://www.w3.org/2000/svg" viewBox="0 0 595.28 566.93"><defs><style>.cls-1{fill:#fff;}</style></defs><polyline class="cls-1" points="193.84 463.26 164.81 424.31 156.15 424.31 156.15 480.26 166.07 480.26 166.07 441.47 195.18 480.26 203.84 480.26 203.84 424.31 193.84 424.31 193.84 463.26"/><path class="cls-1" d="M373.17,481.75a8.37,8.37,0,0,1-2.91,6.3,8.22,8.22,0,0,1-6.45,2.28v9.28s18.17,0,18.88-17V443h-9.52v38.71M416.76,469a8.69,8.69,0,0,1-7.87,3.77,9.2,9.2,0,0,1-7.08-2.91,10.35,10.35,0,0,1-3-8.26,11.31,11.31,0,0,1,2.13-7.4,8.77,8.77,0,0,1,7.71-3.77,8.94,8.94,0,0,1,7.24,2.83,10.34,10.34,0,0,1,2.91,8.1A11.5,11.5,0,0,1,416.76,469Zm2.05-23.53a16.12,16.12,0,0,0-10.07-3.62,20,20,0,0,0-14.4,32.65,17.9,17.9,0,0,0,14.55,6.54A16.27,16.27,0,0,0,419,477.43v2.43h9.53V443H419Zm-40.76-20.93a5.92,5.92,0,0,0-4.33,1.57,5.76,5.76,0,0,0-1.73,4.25,5.7,5.7,0,0,0,1.73,4.17,6.09,6.09,0,0,0,8.5,0,6,6,0,0,0,1.73-4.17,6.09,6.09,0,0,0-1.73-4.25A5.89,5.89,0,0,0,378.05,424.55Zm-30.22,17.39a13.14,13.14,0,0,0-8.65,3.15v-2h-9.6v37.14h9.6V461.69a14,14,0,0,1,1.73-8.89,7.07,7.07,0,0,1,6.14-2.6,6.39,6.39,0,0,1,5,2,13.38,13.38,0,0,1,1.81,8.34v19.35h9.52V460.27a17.47,17.47,0,0,0-4.09-13.45,15.51,15.51,0,0,0-11.49-4.88h0ZM309,469a8.69,8.69,0,0,1-7.87,3.77,9,9,0,0,1-7-2.91,10.52,10.52,0,0,1-3-8.26,11.9,11.9,0,0,1,2.2-7.4,10.08,10.08,0,0,1,14.87-.94,10.27,10.27,0,0,1,2.91,8.1,11.5,11.5,0,0,1-2,7.64Zm2-23.53a16.08,16.08,0,0,0-10-3.62A19.74,19.74,0,0,0,281,461.61a18.73,18.73,0,0,0,5.51,12.9,18.36,18.36,0,0,0,14.55,6.54,16.08,16.08,0,0,0,10-3.62v2.43h9.52V443h-9.52Zm-43.36.08V443h-9.6v37.14h9.6V462.4a15.36,15.36,0,0,1,1.57-8.58,6.09,6.09,0,0,1,5.75-2.44h3.46V443h-3.46A10.4,10.4,0,0,0,267.73,445.56ZM237.59,469a8.68,8.68,0,0,1-7.86,3.77,9,9,0,0,1-7-2.91,10.15,10.15,0,0,1-3.07-8.26,10.88,10.88,0,0,1,2.21-7.4,8.78,8.78,0,0,1,7.71-3.77,8.88,8.88,0,0,1,7.16,2.83,10.59,10.59,0,0,1,2.91,8.1A12.41,12.41,0,0,1,237.59,469Zm2-23.53a16.07,16.07,0,0,0-10-3.62,19,19,0,0,0-13.93,5.82,18.8,18.8,0,0,0-5.59,13.93,18.3,18.3,0,0,0,5.12,12.9,17.76,17.76,0,0,0,14.48,6.54,15.9,15.9,0,0,0,10-3.62v2.43h9.68V443h-9.68Z"/><path class="cls-1" d="M284.33,216,228.55,115.16a30.35,30.35,0,0,1-3.55-14.8v86.87a93.4,93.4,0,0,1-15.81,52,98,98,0,0,1-25.89,25.89,90.77,90.77,0,0,1-16.13,8.66,93,93,0,0,1-17.63,5.35A95,95,0,0,1,131.29,281v62.24A152.63,152.63,0,0,0,158,340.83a156.59,156.59,0,0,0,26.13-7,163.38,163.38,0,0,0,24.47-11.33,164.73,164.73,0,0,0,22-15.42,161.47,161.47,0,0,0,19.2-18.88,159.57,159.57,0,0,0,15.58-22A156.36,156.36,0,0,0,284.33,216"/><path class="cls-1" d="M454.92,92.89a5.12,5.12,0,0,0,3.94-1.73l-1.58-1.42-1.49,1.18h-1.18a2.39,2.39,0,0,1-2.12-.87,3.42,3.42,0,0,1,0-4.56,2.89,2.89,0,0,1,2.12-.86A2.62,2.62,0,0,1,457.28,86l1.58-1.41a5.65,5.65,0,0,0-3.94-2.29,5,5,0,0,0-3.69,1.5,5.2,5.2,0,0,0,0,7.47,5,5,0,0,0,3.69,1.5v.08m-5.27-9.45a5.93,5.93,0,0,1,5.27-2.67,6.25,6.25,0,0,1,4.8,1.73,6.84,6.84,0,0,1-5,11.72,6.51,6.51,0,0,1-4.88-2,6.74,6.74,0,0,1-2.28-5.12A6.47,6.47,0,0,1,449.65,83.44Zm5.27,13.15c3.94,0,6.69-1.74,8.19-5.28a8.15,8.15,0,0,0-1.58-9.52,8.28,8.28,0,0,0-6.61-2.91,8.84,8.84,0,0,0-8.73,8.66,8.38,8.38,0,0,0,2.6,6.45A8.15,8.15,0,0,0,454.92,96.59Z"/><path class="cls-1" d="M228.55,115.16,284.33,216l93.4,168.86.63.87A30.49,30.49,0,0,1,374,370V249.16L283.31,85.49a31,31,0,0,0-34.86-15.26,30.73,30.73,0,0,0-16.91,11,31.8,31.8,0,0,0-3,33.92M436,371.28a23.83,23.83,0,0,1,0,3.38A23.83,23.83,0,0,0,436,371.28Z"/><path class="cls-1" d="M378.28,385.6a27.68,27.68,0,0,0,4,5.51l.63.78a34.2,34.2,0,0,0,5.74,4.41l1.89,1a29.47,29.47,0,0,0,5.19,2.13l2,.71a37.38,37.38,0,0,0,7.24.94,29.83,29.83,0,0,0,6.53-.79l2-.55a26.35,26.35,0,0,0,5-1.89l2.13-1.26,2.75-1.8,2.28-1.81,2.05-2.21,2-2.36,1.57-2.52c0-.86,1-1.73,1.42-2.59l1.1-2.84.86-2.91a7.32,7.32,0,0,1,.56-2.83,26,26,0,0,0,0-3.3V100.36a31.17,31.17,0,1,0-62.25,0v269.5a30.61,30.61,0,0,0,5.43,15.74"/></svg>