<svg id="Capa_1" data-name="Capa 1" xmlns="http://www.w3.org/2000/svg" viewBox="0 0 595.28 566.93"><defs><style>.cls-1{fill:#fff;fill-rule:evenodd;}</style></defs><path class="cls-1" d="M313.1,406.39c0-11.45-2.83-9.33-21.23-9.33l-.17,18.37C307.44,415.43,313.09,417.59,313.1,406.39Z"/><path class="cls-1" d="M81.49,67.31v432.3H507.07a6.72,6.72,0,0,0,6.72-6.72V67.31Zm229.62,225c0-8.63.84-7.67,5.41-12.07,12.31-11.83,24.26-22.8,36.37-34.81,4.06-4,17.44-13.08,11-22.64-2.71-4-50.7-48.77-52.75-53.48l.06-57.73c3.1,1.85,12.31,10.85,15.5,14,4.78,4.76,9,9.47,14,14.44,18.75,18.56,41.36,38.2,58.94,57.13,10.66,11.49,26.17,21.05,25.62,31.93-.44,8.83-7.52,13.35-11.92,17.38l-101.77,98.8C310.41,338.58,311.16,303.93,311.11,292.31ZM196.47,396h-21.1c-7.71,0-11.63,2.78-11.63,10.37,0,34.12-3.7,37.69,17,37.67,12.28,0,15.23-.77,15.24,12l-20.58.19c-15,0-26.31-5.43-26.31-20.47v-32a20,20,0,0,1,20.37-20C192.1,384.28,197.43,380.45,196.47,396Zm59.07,60.29c-.7-2.81-3.51-13-5.34-14.48l-27.77.05-4.82,14.52-15.37-.22c2-7.71,11.28-32.74,14.62-42.62,9.8-29,5.59-28.77,29.95-27.55l24.13,70.37Zm6.31-139.1c-19.66-17.46-38.9-39.22-58.7-57.37-26.19-24-35.94-29.4-14.09-49.07,11.52-10.37,18-19.38,29.09-28.89,12.34-10.59,68.1-67.29,73.15-70.29l.05,55.55c0,5.58-5.82,8.77-13.33,16.21-4.93,4.88-9.6,9.11-14.26,14.22-7.57,8.32-26.61,24.28-26.81,30.58-.22,6.86,8.53,13.17,12.13,16.75,5.88,5.84,42.27,38.17,42.27,43.13,0,11.77.67,48.21-.46,57.26-3.31-4.44-10.09-10-14.5-14.13C271.14,326.2,267.34,322.07,261.85,317.2Zm68.46,123.3c0,11.44-9.8,15.87-21.37,15.87L277,456.2V386c8.16-.75,25.12-.55,33.49,0,10.75.68,17.26,4.64,17.26,15.64,0,15.24-.38,11.91-7.83,18.08C331.74,422.71,330.31,431.71,330.31,440.5Zm56.63,15.84-4.64-14.52H353.59c-.58,2.46-1.62,5.17-2.45,7.6-.71,2.1-1.69,6.6-3.2,6.95l-14.4,0,21.83-63.65c3.57-8.17,11.69-6.78,21.95-6.78,2.13,1.21,2.86,6.16,3.66,8.48,1,3.05,2,5.91,3.11,9l18.12,52.91Zm66.53-.31c-4.32,1.22-38.86.34-46.23.34V413.21c0-15.34-4.3-32,14.71-28.09v59.31h22.16c6.06,0,9-.95,9.38,1.35C453.79,447.44,453.47,453.86,453.47,456Z"/><path class="cls-1" d="M291.71,426.2v19c22.1,0,24,2,24-11C315.75,423.82,307.69,426.2,291.71,426.2Z"/><polygon class="cls-1" points="226.27 429.88 247.05 430.14 236.7 397.63 226.27 429.88"/><polygon class="cls-1" points="357.49 430.06 378.38 430.13 368 397.65 357.49 430.06"/></svg>