<svg id="Capa_1" data-name="Capa 1" xmlns="http://www.w3.org/2000/svg" viewBox="0 0 595.28 566.93"><defs><style>.cls-1{fill:#fff;}</style></defs><polygon class="cls-1" points="217.86 363.88 245.18 203.46 288.93 203.46 261.55 363.88 217.86 363.88 217.86 363.88"/><path class="cls-1" d="M420.16,207.41A112.69,112.69,0,0,0,381,200.67c-43.21,0-73.64,21.75-73.91,52.94-.25,23.05,21.72,35.92,38.31,43.59,17,7.86,22.75,12.88,22.68,19.9-.12,10.75-13.6,15.66-26.18,15.66-17.49,0-26.79-2.43-41.15-8.42l-5.63-2.54L289,357.71c10.2,4.48,29.09,8.36,48.71,8.55,46,0,75.8-21.5,76.14-54.81.17-18.24-11.48-32.13-36.7-43.58-15.29-7.43-24.66-12.38-24.56-19.89,0-6.67,7.92-13.8,25-13.8a80.23,80.23,0,0,1,32.71,6.15l3.94,1.85,5.92-34.77Z"/><path class="cls-1" d="M532.28,203.61H498.5c-10.47,0-18.3,2.86-22.9,13.3l-64.93,147h45.92s7.49-19.77,9.2-24.11l56,.07c1.29,5.61,5.31,24,5.31,24h40.59L532.28,203.61ZM478.36,307c3.62-9.25,17.42-44.85,17.42-44.85-.24.43,3.6-9.29,5.8-15.32l3,13.84L514.67,307Z"/><path class="cls-1" d="M181.18,203.57,138.37,313l-4.58-22.23c-7.95-25.64-32.78-53.41-60.55-67.31l39.15,140.31,46.26-.06L227.5,203.57Z"/><path class="cls-1" d="M98.66,203.48H28.13l-.54,3.33c54.85,13.28,91.16,45.38,106.2,83.94L118.48,217c-2.64-10.16-10.33-13.19-19.82-13.54Z"/></svg>