<svg id="Capa_1" data-name="Capa 1" xmlns="http://www.w3.org/2000/svg" viewBox="0 0 1450 42"><defs><style>.cls-1{fill:#ffd93b;stroke:#fff;stroke-miterlimit:10;stroke-width:3px;}</style></defs><rect class="cls-1" x="2.5" width="1445" height="42"/><path d="M1345.58,28.11h-2.93V22h-5.72v6.09H1334V13.89h2.93v5.76h5.72V13.89h2.93Z"/><path d="M1359.81,21.32a8.48,8.48,0,0,1-.74,3.68,5.59,5.59,0,0,1-2.12,2.45,5.91,5.91,0,0,1-3.17.86,6,6,0,0,1-3.16-.85,5.64,5.64,0,0,1-2.14-2.43,8.21,8.21,0,0,1-.77-3.63v-.7a8.64,8.64,0,0,1,.75-3.7,5.7,5.7,0,0,1,2.14-2.45,6.3,6.3,0,0,1,6.32,0,5.7,5.7,0,0,1,2.14,2.45,8.59,8.59,0,0,1,.75,3.69Zm-3-.64a5.93,5.93,0,0,0-.81-3.4,2.58,2.58,0,0,0-2.28-1.16,2.62,2.62,0,0,0-2.28,1.15,5.94,5.94,0,0,0-.81,3.36v.69a6.1,6.1,0,0,0,.8,3.38,2.62,2.62,0,0,0,2.31,1.2,2.56,2.56,0,0,0,2.26-1.15,6.06,6.06,0,0,0,.81-3.38Z"/><path d="M1371.82,16.26h-4.36V28.11h-2.93V16.26h-4.3V13.89h11.59Z"/><path d="M1385.25,24.38a1.49,1.49,0,0,0-.58-1.27,7.67,7.67,0,0,0-2.11-.94,15.65,15.65,0,0,1-2.41-1,4,4,0,0,1-2.43-3.53,3.48,3.48,0,0,1,.65-2.06,4.32,4.32,0,0,1,1.87-1.41,7.18,7.18,0,0,1,2.73-.5,6.34,6.34,0,0,1,2.71.55,4.25,4.25,0,0,1,1.85,1.56,4.06,4.06,0,0,1,.66,2.28h-2.93a1.92,1.92,0,0,0-.61-1.52,2.54,2.54,0,0,0-1.73-.54,2.72,2.72,0,0,0-1.67.45,1.45,1.45,0,0,0-.6,1.2,1.38,1.38,0,0,0,.7,1.16,7.88,7.88,0,0,0,2.06.88,8.79,8.79,0,0,1,3.64,1.87,3.7,3.7,0,0,1,1.14,2.77,3.43,3.43,0,0,1-1.39,2.9,6.12,6.12,0,0,1-3.76,1,7.1,7.1,0,0,1-3-.61,4.74,4.74,0,0,1-2.06-1.64,4.22,4.22,0,0,1-.7-2.42h2.93c0,1.57.94,2.35,2.82,2.35a2.77,2.77,0,0,0,1.63-.42A1.39,1.39,0,0,0,1385.25,24.38Z"/><path d="M1398.2,25.18h-5.13l-1,2.93H1389l5.3-14.22H1397l5.32,14.22h-3.11Zm-4.34-2.37h3.55l-1.78-5.33Z"/><path d="M1406.56,25.76h6.22v2.35h-9.15V13.89h2.93Z"/><path d="M1423,22h-5.63v3.81h6.6v2.35h-9.53V13.89H1424v2.37h-6.58v3.39H1423Z"/><path d="M1436,23.16h-5.5V20.88h5.5Z"/><path d="M1235.58,28.11h-2.93V22h-5.72v6.09H1224V13.89h2.93v5.76h5.72V13.89h2.93Z"/><path d="M1249.81,21.32a8.48,8.48,0,0,1-.74,3.68,5.59,5.59,0,0,1-2.12,2.45,5.91,5.91,0,0,1-3.17.86,6,6,0,0,1-3.16-.85,5.64,5.64,0,0,1-2.14-2.43,8.21,8.21,0,0,1-.77-3.63v-.7a8.64,8.64,0,0,1,.75-3.7,5.7,5.7,0,0,1,2.14-2.45,6.3,6.3,0,0,1,6.32,0,5.7,5.7,0,0,1,2.14,2.45,8.59,8.59,0,0,1,.75,3.69Zm-3-.64a5.93,5.93,0,0,0-.81-3.4,2.58,2.58,0,0,0-2.28-1.16,2.62,2.62,0,0,0-2.28,1.15,5.94,5.94,0,0,0-.81,3.36v.69a6.1,6.1,0,0,0,.8,3.38,2.62,2.62,0,0,0,2.31,1.2,2.56,2.56,0,0,0,2.26-1.15,6.06,6.06,0,0,0,.81-3.38Z"/><path d="M1261.82,16.26h-4.36V28.11h-2.93V16.26h-4.3V13.89h11.59Z"/><path d="M1275.25,24.38a1.52,1.52,0,0,0-.58-1.28,8,8,0,0,0-2.11-.93,15.65,15.65,0,0,1-2.41-1,4,4,0,0,1-2.43-3.53,3.48,3.48,0,0,1,.65-2.06,4.32,4.32,0,0,1,1.87-1.41,7.18,7.18,0,0,1,2.73-.5,6.34,6.34,0,0,1,2.71.55,4.25,4.25,0,0,1,1.85,1.56,4.06,4.06,0,0,1,.66,2.28h-2.93a1.92,1.92,0,0,0-.61-1.52,2.54,2.54,0,0,0-1.73-.54,2.72,2.72,0,0,0-1.67.45,1.45,1.45,0,0,0-.6,1.2,1.38,1.38,0,0,0,.7,1.16,7.88,7.88,0,0,0,2.06.88,8.79,8.79,0,0,1,3.64,1.87,3.7,3.7,0,0,1,1.14,2.77,3.43,3.43,0,0,1-1.39,2.9,6.12,6.12,0,0,1-3.76,1,7.26,7.26,0,0,1-3-.61,4.74,4.74,0,0,1-2.06-1.64,4.22,4.22,0,0,1-.7-2.42h2.93c0,1.57.94,2.35,2.82,2.35a2.77,2.77,0,0,0,1.63-.42A1.39,1.39,0,0,0,1275.25,24.38Z"/><path d="M1288.2,25.18h-5.13l-1,2.93H1279l5.3-14.22H1287l5.32,14.22h-3.11Zm-4.34-2.37h3.55l-1.78-5.33Z"/><path d="M1296.56,25.76h6.22v2.35h-9.15V13.89h2.93Z"/><path d="M1313,22h-5.63v3.81h6.6v2.35h-9.53V13.89H1314v2.37h-6.58v3.39H1313Z"/><path d="M1326,23.16h-5.5V20.88h5.5Z"/><path d="M1125.58,28.11h-2.93V22h-5.72v6.09H1114V13.89h2.93v5.76h5.72V13.89h2.93Z"/><path d="M1139.81,21.32a8.48,8.48,0,0,1-.74,3.68,5.59,5.59,0,0,1-2.12,2.45,5.91,5.91,0,0,1-3.17.86,6,6,0,0,1-3.16-.85,5.64,5.64,0,0,1-2.14-2.43,8.21,8.21,0,0,1-.77-3.63v-.7a8.64,8.64,0,0,1,.75-3.7,5.7,5.7,0,0,1,2.14-2.45,6.3,6.3,0,0,1,6.32,0,5.7,5.7,0,0,1,2.14,2.45,8.59,8.59,0,0,1,.75,3.69Zm-3-.64a5.93,5.93,0,0,0-.81-3.4,2.58,2.58,0,0,0-2.28-1.16,2.63,2.63,0,0,0-2.28,1.14,6,6,0,0,0-.81,3.37v.69a6.1,6.1,0,0,0,.8,3.38,2.62,2.62,0,0,0,2.31,1.2,2.56,2.56,0,0,0,2.26-1.15,6.06,6.06,0,0,0,.81-3.38Z"/><path d="M1151.82,16.26h-4.36V28.11h-2.93V16.26h-4.3V13.89h11.59Z"/><path d="M1165.25,24.38a1.52,1.52,0,0,0-.58-1.28,8,8,0,0,0-2.11-.93,15.65,15.65,0,0,1-2.41-1,4,4,0,0,1-2.43-3.53,3.48,3.48,0,0,1,.65-2.06,4.32,4.32,0,0,1,1.87-1.41,7.18,7.18,0,0,1,2.73-.5,6.34,6.34,0,0,1,2.71.55,4.25,4.25,0,0,1,1.85,1.56,4.06,4.06,0,0,1,.66,2.28h-2.93a1.92,1.92,0,0,0-.61-1.52,2.54,2.54,0,0,0-1.73-.54,2.72,2.72,0,0,0-1.67.45,1.45,1.45,0,0,0-.6,1.2,1.38,1.38,0,0,0,.7,1.16,7.88,7.88,0,0,0,2.06.88,8.79,8.79,0,0,1,3.64,1.87,3.7,3.7,0,0,1,1.14,2.77,3.43,3.43,0,0,1-1.39,2.9,6.19,6.19,0,0,1-3.76,1,7.26,7.26,0,0,1-3-.61,4.74,4.74,0,0,1-2.06-1.64,4.22,4.22,0,0,1-.7-2.42h2.93c0,1.57.94,2.35,2.82,2.35a2.77,2.77,0,0,0,1.63-.42A1.39,1.39,0,0,0,1165.25,24.38Z"/><path d="M1178.2,25.18h-5.13l-1,2.93H1169l5.3-14.22H1177l5.32,14.22h-3.11Zm-4.34-2.37h3.55l-1.78-5.33Z"/><path d="M1186.56,25.76h6.22v2.35h-9.15V13.89h2.93Z"/><path d="M1203,22h-5.63v3.81h6.6v2.35h-9.53V13.89H1204v2.37h-6.58v3.39H1203Z"/><path d="M1216,23.16h-5.5V20.88h5.5Z"/><path d="M1015.58,28.11h-2.93V22h-5.72v6.09H1004V13.89h2.93v5.76h5.72V13.89h2.93Z"/><path d="M1029.81,21.32a8.48,8.48,0,0,1-.74,3.68,5.59,5.59,0,0,1-2.12,2.45,5.9,5.9,0,0,1-3.17.85,6,6,0,0,1-3.16-.84,5.64,5.64,0,0,1-2.14-2.43,8.21,8.21,0,0,1-.77-3.63v-.7a8.64,8.64,0,0,1,.75-3.7,5.7,5.7,0,0,1,2.14-2.45,6.3,6.3,0,0,1,6.32,0,5.7,5.7,0,0,1,2.14,2.45,8.59,8.59,0,0,1,.75,3.69Zm-3-.64a5.93,5.93,0,0,0-.81-3.4,2.58,2.58,0,0,0-2.28-1.16,2.63,2.63,0,0,0-2.28,1.14,6,6,0,0,0-.81,3.37v.69a6.1,6.1,0,0,0,.8,3.38,2.62,2.62,0,0,0,2.31,1.2,2.56,2.56,0,0,0,2.26-1.15,6.06,6.06,0,0,0,.81-3.38Z"/><path d="M1041.82,16.26h-4.36V28.11h-2.93V16.26h-4.3V13.89h11.59Z"/><path d="M1055.25,24.38a1.52,1.52,0,0,0-.58-1.28,8,8,0,0,0-2.11-.93,15.65,15.65,0,0,1-2.41-1,4,4,0,0,1-2.43-3.53,3.48,3.48,0,0,1,.65-2.06,4.32,4.32,0,0,1,1.87-1.41,7.18,7.18,0,0,1,2.73-.5,6.34,6.34,0,0,1,2.71.55,4.29,4.29,0,0,1,1.85,1.55,4.12,4.12,0,0,1,.66,2.29h-2.93a1.92,1.92,0,0,0-.61-1.52,2.54,2.54,0,0,0-1.73-.54,2.72,2.72,0,0,0-1.67.45,1.45,1.45,0,0,0-.6,1.2,1.38,1.38,0,0,0,.7,1.16,7.88,7.88,0,0,0,2.06.88,8.79,8.79,0,0,1,3.64,1.87,3.7,3.7,0,0,1,1.14,2.77,3.43,3.43,0,0,1-1.39,2.9,6.19,6.19,0,0,1-3.76,1,7.26,7.26,0,0,1-3-.6,4.74,4.74,0,0,1-2.06-1.64,4.24,4.24,0,0,1-.7-2.42h2.93c0,1.57.94,2.35,2.82,2.35a2.77,2.77,0,0,0,1.63-.42A1.39,1.39,0,0,0,1055.25,24.38Z"/><path d="M1068.2,25.18h-5.13l-1,2.93H1059l5.3-14.22H1067l5.32,14.22h-3.11Zm-4.34-2.37h3.55l-1.78-5.33Z"/><path d="M1076.56,25.76h6.22v2.35h-9.15V13.89h2.93Z"/><path d="M1093,22h-5.63v3.81h6.6v2.35h-9.53V13.89H1094v2.37h-6.58v3.39H1093Z"/><path d="M1106,23.16h-5.5V20.88h5.5Z"/><path d="M905.58,28.11h-2.93V22h-5.72v6.09H894V13.89h2.93v5.76h5.72V13.89h2.93Z"/><path d="M919.81,21.32a8.48,8.48,0,0,1-.74,3.68A5.59,5.59,0,0,1,917,27.45a5.9,5.9,0,0,1-3.17.85,6,6,0,0,1-3.16-.84A5.64,5.64,0,0,1,908.48,25a8.21,8.21,0,0,1-.77-3.63v-.7a8.64,8.64,0,0,1,.75-3.7,5.7,5.7,0,0,1,2.14-2.45,6.3,6.3,0,0,1,6.32,0A5.7,5.7,0,0,1,919.06,17a8.59,8.59,0,0,1,.75,3.69Zm-3-.64a5.93,5.93,0,0,0-.81-3.4,2.58,2.58,0,0,0-2.28-1.16,2.63,2.63,0,0,0-2.28,1.14,6,6,0,0,0-.81,3.37v.69a6.1,6.1,0,0,0,.8,3.38,2.62,2.62,0,0,0,2.31,1.2A2.56,2.56,0,0,0,916,24.75a6.06,6.06,0,0,0,.81-3.38Z"/><path d="M931.82,16.26h-4.36V28.11h-2.93V16.26h-4.3V13.89h11.59Z"/><path d="M945.25,24.38a1.52,1.52,0,0,0-.58-1.28,8,8,0,0,0-2.11-.93,15.65,15.65,0,0,1-2.41-1,4,4,0,0,1-2.43-3.53,3.48,3.48,0,0,1,.65-2.06,4.32,4.32,0,0,1,1.87-1.41,7,7,0,0,1,2.73-.5,6.34,6.34,0,0,1,2.71.55,4.23,4.23,0,0,1,1.85,1.55,4.12,4.12,0,0,1,.66,2.29h-2.93a1.92,1.92,0,0,0-.61-1.52,2.54,2.54,0,0,0-1.73-.54,2.72,2.72,0,0,0-1.67.45,1.45,1.45,0,0,0-.6,1.2,1.38,1.38,0,0,0,.7,1.16,7.88,7.88,0,0,0,2.06.88,8.79,8.79,0,0,1,3.64,1.87,3.7,3.7,0,0,1,1.14,2.77,3.43,3.43,0,0,1-1.39,2.9,6.19,6.19,0,0,1-3.76,1,7.26,7.26,0,0,1-3-.6A4.74,4.74,0,0,1,938,26.06a4.24,4.24,0,0,1-.7-2.42h2.93c0,1.57.94,2.35,2.82,2.35a2.77,2.77,0,0,0,1.63-.42A1.39,1.39,0,0,0,945.25,24.38Z"/><path d="M958.2,25.18h-5.13l-1,2.93H949l5.3-14.22H957l5.32,14.22h-3.11Zm-4.34-2.37h3.55l-1.78-5.33Z"/><path d="M966.56,25.76h6.22v2.35h-9.15V13.89h2.93Z"/><path d="M983,22h-5.63v3.81H984v2.35h-9.53V13.89H984v2.37h-6.58v3.39H983Z"/><path d="M996,23.16h-5.5V20.88H996Z"/><path d="M795.58,28.11h-2.93V22h-5.72v6.09H784V13.89h2.93v5.76h5.72V13.89h2.93Z"/><path d="M809.81,21.32a8.48,8.48,0,0,1-.74,3.68A5.59,5.59,0,0,1,807,27.45a5.9,5.9,0,0,1-3.17.85,6,6,0,0,1-3.16-.84A5.64,5.64,0,0,1,798.48,25a8.21,8.21,0,0,1-.77-3.63v-.7a8.64,8.64,0,0,1,.75-3.7,5.7,5.7,0,0,1,2.14-2.45,6.3,6.3,0,0,1,6.32,0A5.7,5.7,0,0,1,809.06,17a8.59,8.59,0,0,1,.75,3.69Zm-3-.64a5.93,5.93,0,0,0-.81-3.4,2.58,2.58,0,0,0-2.28-1.16,2.63,2.63,0,0,0-2.28,1.14,6,6,0,0,0-.81,3.37v.69a6.1,6.1,0,0,0,.8,3.38,2.62,2.62,0,0,0,2.31,1.2A2.56,2.56,0,0,0,806,24.75a6.06,6.06,0,0,0,.81-3.38Z"/><path d="M821.82,16.26h-4.36V28.11h-2.93V16.26h-4.3V13.89h11.59Z"/><path d="M835.25,24.38a1.52,1.52,0,0,0-.58-1.28,8,8,0,0,0-2.11-.93,15.65,15.65,0,0,1-2.41-1,4,4,0,0,1-2.43-3.53,3.48,3.48,0,0,1,.65-2.06,4.32,4.32,0,0,1,1.87-1.41,7,7,0,0,1,2.73-.5,6.34,6.34,0,0,1,2.71.55,4.23,4.23,0,0,1,1.85,1.55,4.12,4.12,0,0,1,.66,2.29h-2.93a1.92,1.92,0,0,0-.61-1.52,2.54,2.54,0,0,0-1.73-.54,2.72,2.72,0,0,0-1.67.45,1.45,1.45,0,0,0-.6,1.2,1.38,1.38,0,0,0,.7,1.16,7.88,7.88,0,0,0,2.06.88,8.79,8.79,0,0,1,3.64,1.87,3.7,3.7,0,0,1,1.14,2.77,3.4,3.4,0,0,1-1.39,2.89A6.12,6.12,0,0,1,833,28.3a7.26,7.26,0,0,1-3-.6A4.74,4.74,0,0,1,828,26.06a4.24,4.24,0,0,1-.7-2.42h2.93c0,1.57.94,2.35,2.82,2.35a2.77,2.77,0,0,0,1.63-.42A1.39,1.39,0,0,0,835.25,24.38Z"/><path d="M848.2,25.18h-5.13l-1,2.93H839l5.3-14.22H847l5.32,14.22h-3.11Zm-4.34-2.37h3.55l-1.78-5.33Z"/><path d="M856.56,25.76h6.22v2.35h-9.15V13.89h2.93Z"/><path d="M873,22h-5.63v3.81H874v2.35h-9.53V13.89H874v2.37h-6.58v3.39H873Z"/><path d="M886,23.16h-5.5V20.88H886Z"/><path d="M685.58,28.11h-2.93V22h-5.72v6.09H674V13.89h2.93v5.76h5.72V13.89h2.93Z"/><path d="M699.81,21.32a8.48,8.48,0,0,1-.74,3.68A5.59,5.59,0,0,1,697,27.45a5.9,5.9,0,0,1-3.17.85,6,6,0,0,1-3.16-.84A5.64,5.64,0,0,1,688.48,25a8.21,8.21,0,0,1-.77-3.63v-.7a8.64,8.64,0,0,1,.75-3.7,5.7,5.7,0,0,1,2.14-2.45,6.3,6.3,0,0,1,6.32,0A5.7,5.7,0,0,1,699.06,17a8.59,8.59,0,0,1,.75,3.69Zm-3-.64a5.93,5.93,0,0,0-.81-3.4,2.58,2.58,0,0,0-2.28-1.16,2.63,2.63,0,0,0-2.28,1.14,6,6,0,0,0-.81,3.37v.69a6.1,6.1,0,0,0,.8,3.38,2.62,2.62,0,0,0,2.31,1.2A2.56,2.56,0,0,0,696,24.75a6.06,6.06,0,0,0,.81-3.38Z"/><path d="M711.82,16.26h-4.36V28.11h-2.93V16.26h-4.3V13.89h11.59Z"/><path d="M725.25,24.38a1.52,1.52,0,0,0-.58-1.28,8,8,0,0,0-2.11-.93,15.65,15.65,0,0,1-2.41-1,4,4,0,0,1-2.43-3.53,3.48,3.48,0,0,1,.65-2.06,4.32,4.32,0,0,1,1.87-1.41,7,7,0,0,1,2.73-.5,6.34,6.34,0,0,1,2.71.55,4.23,4.23,0,0,1,1.85,1.55,4.12,4.12,0,0,1,.66,2.29h-2.93a1.92,1.92,0,0,0-.61-1.52,2.54,2.54,0,0,0-1.73-.54,2.72,2.72,0,0,0-1.67.45,1.45,1.45,0,0,0-.6,1.2,1.38,1.38,0,0,0,.7,1.16,7.88,7.88,0,0,0,2.06.88,8.79,8.79,0,0,1,3.64,1.87,3.7,3.7,0,0,1,1.14,2.77,3.4,3.4,0,0,1-1.39,2.89A6.12,6.12,0,0,1,723,28.3a7.26,7.26,0,0,1-3-.6A4.74,4.74,0,0,1,718,26.06a4.24,4.24,0,0,1-.7-2.42h2.93c0,1.57.94,2.35,2.82,2.35a2.77,2.77,0,0,0,1.63-.42A1.39,1.39,0,0,0,725.25,24.38Z"/><path d="M738.2,25.18h-5.13l-1,2.93H729l5.3-14.22H737l5.32,14.22h-3.11Zm-4.34-2.37h3.55l-1.78-5.33Z"/><path d="M746.56,25.76h6.22v2.35h-9.15V13.89h2.93Z"/><path d="M763,22h-5.63v3.81H764v2.35h-9.53V13.89H764v2.37h-6.58v3.39H763Z"/><path d="M776,23.16h-5.5V20.88H776Z"/><path d="M575.58,28.11h-2.93V22h-5.72v6.09H564V13.89h2.93v5.76h5.72V13.89h2.93Z"/><path d="M589.81,21.32a8.48,8.48,0,0,1-.74,3.68A5.59,5.59,0,0,1,587,27.45a6.32,6.32,0,0,1-6.33,0A5.56,5.56,0,0,1,578.48,25a8.21,8.21,0,0,1-.77-3.63v-.7a8.64,8.64,0,0,1,.75-3.7,5.7,5.7,0,0,1,2.14-2.45,6.3,6.3,0,0,1,6.32,0A5.7,5.7,0,0,1,589.06,17a8.59,8.59,0,0,1,.75,3.69Zm-3-.64a5.93,5.93,0,0,0-.81-3.4,2.58,2.58,0,0,0-2.28-1.16,2.63,2.63,0,0,0-2.28,1.14,6,6,0,0,0-.81,3.37v.69a6.1,6.1,0,0,0,.8,3.38,2.62,2.62,0,0,0,2.31,1.2A2.56,2.56,0,0,0,586,24.75a6.06,6.06,0,0,0,.81-3.38Z"/><path d="M601.82,16.26h-4.36V28.11h-2.93V16.26h-4.3V13.89h11.59Z"/><path d="M615.25,24.38a1.52,1.52,0,0,0-.58-1.28,8,8,0,0,0-2.11-.93,15.65,15.65,0,0,1-2.41-1,4,4,0,0,1-2.43-3.53,3.48,3.48,0,0,1,.65-2.06,4.32,4.32,0,0,1,1.87-1.41,7,7,0,0,1,2.73-.5,6.34,6.34,0,0,1,2.71.55,4.23,4.23,0,0,1,1.85,1.55,4.12,4.12,0,0,1,.66,2.29h-2.93a1.92,1.92,0,0,0-.61-1.52,2.54,2.54,0,0,0-1.73-.54,2.72,2.72,0,0,0-1.67.45,1.44,1.44,0,0,0-.6,1.2,1.38,1.38,0,0,0,.7,1.16,7.88,7.88,0,0,0,2.06.88,8.79,8.79,0,0,1,3.64,1.87,3.7,3.7,0,0,1,1.14,2.77,3.4,3.4,0,0,1-1.39,2.89A6.12,6.12,0,0,1,613,28.3a7.26,7.26,0,0,1-3-.6A4.74,4.74,0,0,1,608,26.06a4.24,4.24,0,0,1-.7-2.42h2.93c0,1.57.94,2.35,2.82,2.35a2.77,2.77,0,0,0,1.63-.42A1.39,1.39,0,0,0,615.25,24.38Z"/><path d="M628.2,25.18h-5.13l-1,2.93H619l5.3-14.22H627l5.32,14.22h-3.11Zm-4.34-2.37h3.55l-1.78-5.33Z"/><path d="M636.56,25.76h6.22v2.35h-9.15V13.89h2.93Z"/><path d="M653,22h-5.63v3.81H654v2.35h-9.53V13.89H654v2.37h-6.58v3.39H653Z"/><path d="M666,23.16h-5.5V20.88H666Z"/><path d="M465.58,28.11h-2.93V22h-5.72v6.09H454V13.89h2.93v5.76h5.72V13.89h2.93Z"/><path d="M479.81,21.32a8.48,8.48,0,0,1-.74,3.68A5.59,5.59,0,0,1,477,27.45a6.32,6.32,0,0,1-6.33,0A5.56,5.56,0,0,1,468.48,25a8.21,8.21,0,0,1-.77-3.63v-.7a8.64,8.64,0,0,1,.75-3.7,5.7,5.7,0,0,1,2.14-2.45,6.3,6.3,0,0,1,6.32,0A5.7,5.7,0,0,1,479.06,17a8.59,8.59,0,0,1,.75,3.69Zm-3-.64a5.93,5.93,0,0,0-.81-3.4,2.58,2.58,0,0,0-2.28-1.16,2.63,2.63,0,0,0-2.28,1.14,6,6,0,0,0-.81,3.37v.69a6.1,6.1,0,0,0,.8,3.38,2.62,2.62,0,0,0,2.31,1.2A2.55,2.55,0,0,0,476,24.74a6,6,0,0,0,.81-3.37Z"/><path d="M491.82,16.26h-4.36V28.11h-2.93V16.26h-4.3V13.89h11.59Z"/><path d="M505.25,24.38a1.52,1.52,0,0,0-.58-1.28,8,8,0,0,0-2.11-.93,15.65,15.65,0,0,1-2.41-1,4,4,0,0,1-2.43-3.53,3.48,3.48,0,0,1,.65-2.06,4.32,4.32,0,0,1,1.87-1.41,7,7,0,0,1,2.73-.5,6.34,6.34,0,0,1,2.71.55,4.23,4.23,0,0,1,1.85,1.55,4.09,4.09,0,0,1,.66,2.29h-2.93a1.92,1.92,0,0,0-.61-1.52,2.54,2.54,0,0,0-1.73-.54,2.72,2.72,0,0,0-1.67.45,1.44,1.44,0,0,0-.6,1.2,1.38,1.38,0,0,0,.7,1.16,7.88,7.88,0,0,0,2.06.88,8.79,8.79,0,0,1,3.64,1.87,3.7,3.7,0,0,1,1.14,2.77,3.41,3.41,0,0,1-1.39,2.89A6.12,6.12,0,0,1,503,28.3a7.26,7.26,0,0,1-3-.6A4.74,4.74,0,0,1,498,26.06a4.24,4.24,0,0,1-.7-2.42h2.93c0,1.57.94,2.35,2.82,2.35a2.77,2.77,0,0,0,1.63-.42A1.39,1.39,0,0,0,505.25,24.38Z"/><path d="M518.2,25.18h-5.13l-1,2.93H509l5.3-14.22H517l5.32,14.22h-3.11Zm-4.34-2.37h3.55l-1.78-5.33Z"/><path d="M526.56,25.76h6.22v2.35h-9.15V13.89h2.93Z"/><path d="M543,22h-5.63v3.81H544v2.35h-9.53V13.89H544v2.37h-6.58v3.39H543Z"/><path d="M556,23.16h-5.5V20.88H556Z"/><path d="M355.58,28.11h-2.93V22h-5.72v6.09H344V13.89h2.93v5.76h5.72V13.89h2.93Z"/><path d="M369.81,21.32a8.48,8.48,0,0,1-.74,3.68A5.59,5.59,0,0,1,367,27.45a6.32,6.32,0,0,1-6.33,0A5.56,5.56,0,0,1,358.48,25a8.21,8.21,0,0,1-.77-3.63v-.7a8.64,8.64,0,0,1,.75-3.7,5.7,5.7,0,0,1,2.14-2.45,6.3,6.3,0,0,1,6.32,0A5.7,5.7,0,0,1,369.06,17a8.59,8.59,0,0,1,.75,3.69Zm-3-.64a5.93,5.93,0,0,0-.81-3.4,2.58,2.58,0,0,0-2.28-1.16,2.63,2.63,0,0,0-2.28,1.14,6,6,0,0,0-.81,3.37v.69a6.1,6.1,0,0,0,.8,3.38,2.62,2.62,0,0,0,2.31,1.2A2.55,2.55,0,0,0,366,24.74a6,6,0,0,0,.81-3.37Z"/><path d="M381.82,16.26h-4.36V28.11h-2.93V16.26h-4.3V13.89h11.59Z"/><path d="M395.25,24.38a1.52,1.52,0,0,0-.58-1.28,8,8,0,0,0-2.11-.93,15.65,15.65,0,0,1-2.41-1,4,4,0,0,1-2.43-3.53,3.48,3.48,0,0,1,.65-2.06,4.32,4.32,0,0,1,1.87-1.41,7,7,0,0,1,2.73-.5,6.34,6.34,0,0,1,2.71.55,4.23,4.23,0,0,1,1.85,1.55,4.09,4.09,0,0,1,.66,2.29h-2.93a1.92,1.92,0,0,0-.61-1.52,2.54,2.54,0,0,0-1.73-.54,2.72,2.72,0,0,0-1.67.45,1.44,1.44,0,0,0-.6,1.2,1.38,1.38,0,0,0,.7,1.16,7.88,7.88,0,0,0,2.06.88,8.79,8.79,0,0,1,3.64,1.87,3.7,3.7,0,0,1,1.14,2.77,3.41,3.41,0,0,1-1.39,2.89A6.12,6.12,0,0,1,393,28.3a7.26,7.26,0,0,1-3-.6A4.74,4.74,0,0,1,388,26.06a4.24,4.24,0,0,1-.7-2.42h2.93c0,1.57.94,2.35,2.82,2.35a2.77,2.77,0,0,0,1.63-.42A1.39,1.39,0,0,0,395.25,24.38Z"/><path d="M408.2,25.18h-5.13l-1,2.93H399l5.3-14.22H407l5.32,14.22h-3.11Zm-4.34-2.37h3.55l-1.78-5.33Z"/><path d="M416.56,25.76h6.22v2.35h-9.15V13.89h2.93Z"/><path d="M433,22h-5.63v3.81H434v2.35h-9.53V13.89H434v2.37h-6.58v3.39H433Z"/><path d="M446,23.16h-5.5V20.88H446Z"/><path d="M245.58,28.11h-2.93V22h-5.72v6.09H234V13.89h2.93v5.76h5.72V13.89h2.93Z"/><path d="M259.81,21.32a8.48,8.48,0,0,1-.74,3.68A5.51,5.51,0,0,1,257,27.44a5.82,5.82,0,0,1-3.17.86,5.91,5.91,0,0,1-3.16-.85A5.56,5.56,0,0,1,248.48,25a8.21,8.21,0,0,1-.77-3.63v-.7a8.64,8.64,0,0,1,.75-3.7,5.7,5.7,0,0,1,2.14-2.45,6.24,6.24,0,0,1,6.32,0A5.7,5.7,0,0,1,259.06,17a8.59,8.59,0,0,1,.75,3.69Zm-3-.64a5.93,5.93,0,0,0-.81-3.4,2.58,2.58,0,0,0-2.28-1.16,2.63,2.63,0,0,0-2.28,1.14,6,6,0,0,0-.81,3.37v.69a6.1,6.1,0,0,0,.8,3.38,2.62,2.62,0,0,0,2.31,1.2A2.55,2.55,0,0,0,256,24.74a6,6,0,0,0,.81-3.37Z"/><path d="M271.82,16.26h-4.36V28.11h-2.93V16.26h-4.3V13.89h11.59Z"/><path d="M285.25,24.38a1.52,1.52,0,0,0-.58-1.28,8,8,0,0,0-2.11-.93,14.6,14.6,0,0,1-2.41-1,3.93,3.93,0,0,1-2.43-3.52,3.48,3.48,0,0,1,.65-2.06,4.32,4.32,0,0,1,1.87-1.41,7,7,0,0,1,2.73-.51,6.34,6.34,0,0,1,2.71.56,4.23,4.23,0,0,1,1.85,1.55,4.09,4.09,0,0,1,.66,2.29h-2.93a1.92,1.92,0,0,0-.61-1.52,2.54,2.54,0,0,0-1.73-.54,2.72,2.72,0,0,0-1.67.45,1.44,1.44,0,0,0-.6,1.2,1.38,1.38,0,0,0,.7,1.16,7.88,7.88,0,0,0,2.06.88,8.79,8.79,0,0,1,3.64,1.87,3.7,3.7,0,0,1,1.14,2.77,3.41,3.41,0,0,1-1.39,2.89A6.12,6.12,0,0,1,283,28.3a7.26,7.26,0,0,1-3-.6A4.74,4.74,0,0,1,278,26.06a4.24,4.24,0,0,1-.7-2.42h2.93c0,1.57.94,2.35,2.82,2.35a2.77,2.77,0,0,0,1.63-.42A1.39,1.39,0,0,0,285.25,24.38Z"/><path d="M298.2,25.18h-5.13l-1,2.93H289l5.3-14.22H297l5.32,14.22h-3.11Zm-4.34-2.37h3.55l-1.78-5.33Z"/><path d="M306.56,25.76h6.22v2.35h-9.15V13.89h2.93Z"/><path d="M323,22h-5.63v3.81H324v2.35h-9.53V13.89H324v2.37h-6.58v3.39H323Z"/><path d="M336,23.16h-5.5V20.88H336Z"/><path d="M135.58,28.11h-2.93V22h-5.72v6.09H124V13.89h2.93v5.76h5.72V13.89h2.93Z"/><path d="M149.81,21.32a8.48,8.48,0,0,1-.74,3.68A5.51,5.51,0,0,1,147,27.44a5.82,5.82,0,0,1-3.17.86,5.91,5.91,0,0,1-3.16-.85A5.56,5.56,0,0,1,138.48,25a8.21,8.21,0,0,1-.77-3.63v-.7a8.61,8.61,0,0,1,.75-3.7,5.7,5.7,0,0,1,2.14-2.45,6.24,6.24,0,0,1,6.32,0A5.7,5.7,0,0,1,149.06,17a8.56,8.56,0,0,1,.75,3.69Zm-3-.64a5.93,5.93,0,0,0-.81-3.4,2.58,2.58,0,0,0-2.28-1.16,2.63,2.63,0,0,0-2.28,1.14,6,6,0,0,0-.81,3.37v.69a6.1,6.1,0,0,0,.8,3.38,2.62,2.62,0,0,0,2.31,1.2A2.55,2.55,0,0,0,146,24.74a6,6,0,0,0,.81-3.37Z"/><path d="M161.82,16.26h-4.36V28.11h-2.93V16.26h-4.3V13.89h11.59Z"/><path d="M175.25,24.38a1.52,1.52,0,0,0-.58-1.28,8,8,0,0,0-2.11-.93,14.6,14.6,0,0,1-2.41-1,3.93,3.93,0,0,1-2.43-3.52,3.48,3.48,0,0,1,.65-2.06,4.32,4.32,0,0,1,1.87-1.41,7,7,0,0,1,2.73-.51,6.34,6.34,0,0,1,2.71.56,4.23,4.23,0,0,1,1.85,1.55,4.09,4.09,0,0,1,.66,2.29h-2.93a1.92,1.92,0,0,0-.61-1.52,2.54,2.54,0,0,0-1.73-.54,2.72,2.72,0,0,0-1.67.45,1.44,1.44,0,0,0-.6,1.2,1.38,1.38,0,0,0,.7,1.16,7.88,7.88,0,0,0,2.06.88,8.79,8.79,0,0,1,3.64,1.87,3.7,3.7,0,0,1,1.14,2.77,3.41,3.41,0,0,1-1.39,2.89A6.12,6.12,0,0,1,173,28.3a7.26,7.26,0,0,1-3-.6A4.81,4.81,0,0,1,168,26.06a4.24,4.24,0,0,1-.7-2.42h2.93c0,1.57.94,2.35,2.82,2.35a2.7,2.7,0,0,0,1.63-.43A1.36,1.36,0,0,0,175.25,24.38Z"/><path d="M188.2,25.18h-5.13l-1,2.93H179l5.3-14.22H187l5.32,14.22h-3.11Zm-4.34-2.37h3.55l-1.78-5.33Z"/><path d="M196.56,25.76h6.22v2.35h-9.15V13.89h2.93Z"/><path d="M213,22h-5.63v3.81H214v2.35h-9.53V13.89H214v2.37h-6.58v3.39H213Z"/><path d="M226,23.16h-5.5V20.88H226Z"/><path d="M25.58,28.11H22.65V22H16.93v6.09H14V13.89h2.93v5.76h5.72V13.89h2.93Z"/><path d="M39.81,21.32A8.48,8.48,0,0,1,39.07,25,5.51,5.51,0,0,1,37,27.44a5.82,5.82,0,0,1-3.17.86,5.91,5.91,0,0,1-3.16-.85A5.56,5.56,0,0,1,28.48,25a8.21,8.21,0,0,1-.77-3.63v-.7a8.61,8.61,0,0,1,.75-3.7,5.7,5.7,0,0,1,2.14-2.45,6.24,6.24,0,0,1,6.32,0A5.7,5.7,0,0,1,39.06,17a8.56,8.56,0,0,1,.75,3.69Zm-3-.64a5.93,5.93,0,0,0-.81-3.4,2.58,2.58,0,0,0-2.28-1.16,2.63,2.63,0,0,0-2.28,1.14,6,6,0,0,0-.81,3.37v.69a6.1,6.1,0,0,0,.8,3.38,2.62,2.62,0,0,0,2.31,1.2A2.55,2.55,0,0,0,36,24.74a6,6,0,0,0,.81-3.37Z"/><path d="M51.82,16.26H47.46V28.11H44.53V16.26h-4.3V13.89H51.82Z"/><path d="M65.25,24.38a1.52,1.52,0,0,0-.58-1.28,8,8,0,0,0-2.11-.93,14.6,14.6,0,0,1-2.41-1,3.93,3.93,0,0,1-2.43-3.52,3.48,3.48,0,0,1,.65-2.06,4.32,4.32,0,0,1,1.87-1.41A7,7,0,0,1,63,13.69a6.34,6.34,0,0,1,2.71.56,4.23,4.23,0,0,1,1.85,1.55,4.09,4.09,0,0,1,.66,2.29H65.26a1.92,1.92,0,0,0-.61-1.52A2.54,2.54,0,0,0,62.92,16a2.72,2.72,0,0,0-1.67.45,1.44,1.44,0,0,0-.6,1.2,1.38,1.38,0,0,0,.7,1.16,7.88,7.88,0,0,0,2.06.88,8.79,8.79,0,0,1,3.64,1.87,3.7,3.7,0,0,1,1.14,2.77,3.41,3.41,0,0,1-1.39,2.89A6.12,6.12,0,0,1,63,28.3a7.26,7.26,0,0,1-3-.6A4.81,4.81,0,0,1,58,26.06a4.24,4.24,0,0,1-.7-2.42h2.93c0,1.57.94,2.35,2.82,2.35a2.7,2.7,0,0,0,1.63-.43A1.36,1.36,0,0,0,65.25,24.38Z"/><path d="M78.2,25.18H73.07l-1,2.93H69l5.3-14.22H77L82.3,28.11H79.19Zm-4.34-2.37h3.55l-1.78-5.33Z"/><path d="M86.56,25.76h6.22v2.35H83.63V13.89h2.93Z"/><path d="M103,22H97.39v3.81H104v2.35H94.46V13.89H104v2.37H97.39v3.39H103Z"/><path d="M116,23.16h-5.5V20.88H116Z"/></svg>