<svg xmlns="http://www.w3.org/2000/svg" viewBox="0 0 1080 1080"><defs><style>.cls-1{fill:#fc5226;}.cls-2{fill:#fff;}.cls-3{opacity:0.15;isolation:isolate;}.cls-4{fill:#2e334d;}</style></defs><g id="Capa_3" data-name="Capa 3"><g id="hotsale"><path class="cls-1" d="M879,141.16,272.41,323.59l-3,1.52c-19.76,6.08-45.6,13.68-66.89,47.13L56.54,591.15c-7.6,10.64-9.12,22.8-6.08,35l51.69,176.35q4.56,18.24,22.8,27.37L368.19,931.68c38,15.2,66.89,6.08,83.61,0,0,0,273.64-82.09,459.11-138.34L1031,554.66,920,164C915.47,145.72,897.23,136.6,879,141.16ZM216.17,697.57A29.24,29.24,0,1,1,204,658C219.21,665.64,223.77,682.36,216.17,697.57Z"/><path class="cls-2" d="M801.45,343.35a27.37,27.37,0,1,1-54.73,0c0-15.2,12.17-27.36,27.37-25.84C790.81,316,801.45,328.15,801.45,343.35Zm-47.12,0a20.79,20.79,0,0,0,21.28,21.29c12.16,0,19.76-9.13,21.28-21.29,0-12.16-9.12-21.28-19.76-21.28C763.45,322.07,754.33,331.19,754.33,343.35ZM771.05,357H765V329.67h10.64c4.56,0,7.6,1.52,9.12,1.52,1.52,1.52,3,3,3,6.08a6.54,6.54,0,0,1-6.08,6.08h0c3,1.52,4.56,3,4.56,6.08,1.52,4.56,1.52,6.08,1.52,6.08h-6.08c-1.52-1.52-1.52-3-1.52-6.08s-1.52-4.56-6.08-4.56h-3Zm0-15.2h3c3,0,6.08-1.52,6.08-4.56s-1.52-4.56-6.08-4.56h-3Z"/><path class="cls-2" d="M470,448.25V550.1H418.36V463.45c0-18.24-10.65-30.4-28.89-30.4-19.76,0-33.44,16.72-33.44,38V550.1H302.82V344.87l51.69-15.2V414.8c12.16-19.76,30.4-28.88,54.72-28.88C445.72,387.44,470,411.76,470,448.25Z"/><path class="cls-2" d="M644.87,469.53c0,50.17-35,82.09-86.65,82.09C505,551.62,470,518.18,470,469.53s35-82.09,88.18-82.09C609.9,389,644.87,420.88,644.87,469.53Zm-124.66,1.52c0,25.85,15.2,42.57,36.49,42.57s36.48-16.72,36.48-42.57c0-24.32-15.2-42.56-36.48-42.56C535.41,430,520.21,446.73,520.21,471.05Z"/><path class="cls-2" d="M752.81,542.5c-12.17,7.6-27.37,10.64-44.09,10.64-31.93,0-54.73-18.24-54.73-51.68V431.53h-22.8V398.08H654V352.47h51.69v45.61h42.57v35H705.68V496.9c0,12.16,6.08,18.24,15.2,18.24,6.08,0,12.16-1.52,19.76-6.08Z"/><path class="cls-2" d="M427.48,603.31l-18.25,35c-19.76-10.65-38-16.73-51.68-16.73-9.12,0-16.73,3-16.73,10.65,0,22.8,83.62,12.16,83.62,68.41,0,33.44-28.89,51.68-68.41,51.68-27.37,0-53.21-7.6-71.45-22.8l18.24-33.44c18.24,13.68,39.52,19.76,57.77,19.76,10.64,0,18.24-3,18.24-10.64,0-24.33-82.09-12.17-82.09-68.41,0-33.45,28.88-51.69,65.37-51.69C384.91,585.07,406.19,592.67,427.48,603.31Z"/><path class="cls-2" d="M578,644.36V749.25H526.29V731c-10.64,13.68-27.36,21.28-50.17,21.28-35,0-56.24-21.28-56.24-51.68S441.16,652,482.21,652h42.56v-3c0-16.72-10.64-25.85-31.92-25.85-13.69,0-31.93,4.56-48.65,13.69l-15.2-35c25.84-12.16,48.64-18.24,74.49-18.24C550.62,585.07,578,607.87,578,644.36Zm-51.69,50.17V679.32H492.85q-22.82,0-22.81,18.25c0,12.16,9.12,19.76,22.81,19.76C511.09,717.33,523.25,708.21,526.29,694.53Z"/><path class="cls-2" d="M819.7,683.88H707.2c4.56,19.77,18.24,30.41,38,30.41,13.69,0,27.37-6.08,39.53-16.72l27.36,27.36c-16.72,18.24-41,28.88-69.93,28.88-53.2,0-85.13-33.44-85.13-80.57,0-50.17,35-82.09,83.61-82.09C795.37,586.59,822.74,623.07,819.7,683.88ZM771.05,655c0-19.76-12.16-33.45-31.93-33.45-18.24,0-30.4,13.69-33.44,33.45Z"/><path class="cls-2" d="M594.7,749.25V566.83c21.29-6.09,38-18.25,51.69-36.49V747.73H594.7Z"/><path class="cls-2" d="M292.18,828.31a7.61,7.61,0,1,1-7.6-7.61A7.18,7.18,0,0,1,292.18,828.31Z"/><path class="cls-2" d="M342.34,793.34l-10.64,7.6c-3-3-7.6-6.08-12.16-6.08-7.6,0-12.16,6.08-12.16,13.68,0,9.12,4.56,13.68,12.16,13.68,6.08,0,9.12-1.52,12.16-6.08l10.64,7.6c-4.56,7.61-12.16,12.17-22.8,12.17-16.72,0-27.36-10.65-27.36-27.37s10.64-27.36,27.36-27.36C330.18,781.18,337.78,785.74,342.34,793.34Z"/><path class="cls-2" d="M394,808.54c0,16.72-12.16,27.37-28.88,27.37s-28.89-10.65-28.89-27.37,12.17-27.36,28.89-27.36C384.91,781.18,394,791.82,394,808.54Zm-39.52,0c0,9.12,4.56,15.2,13.68,15.2,7.6,0,13.68-6.08,13.68-15.2s-6.08-15.2-13.68-15.2C360.59,794.86,354.51,800.94,354.51,808.54Z"/><path class="cls-2" d="M486.77,802.46v33.45H471.56V807a10.39,10.39,0,0,0-10.64-10.64c-7.6,0-12.16,6.08-12.16,13.68v25.85h-15.2V807a10.39,10.39,0,0,0-10.64-10.64c-7.6,0-12.17,6.08-12.17,13.68v25.85h-15.2V782.7h15.2v9.12c3.05-6.08,10.65-9.12,18.25-9.12,9.12,0,15.2,4.56,18.24,12.16,3-7.6,10.64-12.16,19.76-12.16C479.16,781.18,486.77,790.3,486.77,802.46Z"/><path class="cls-2" d="M505,828.31a7.6,7.6,0,1,1-7.6-7.61A7.18,7.18,0,0,1,505,828.31Z"/><path class="cls-2" d="M538.45,829.83c-3,4.56-9.12,7.6-16.72,7.6-10.64,0-18.24-7.6-18.24-16.73,0-10.64,7.6-15.2,19.76-15.2h15.2V804c0-6.08-3-9.12-10.64-9.12a29.33,29.33,0,0,0-15.2,4.56l-4.56-10.64c7.6-4.56,15.2-6.08,24.32-6.08,13.68,0,22.81,7.6,22.81,18.24v35H540l-1.52-6.08Zm0-12.17V813.1H526.29c-6.08,0-9.12,1.52-9.12,6.08s3,6.08,7.6,6.08C532.37,825.26,536.93,822.22,538.45,817.66Z"/><path class="cls-2" d="M574.94,791.82c3-6.08,9.12-10.64,18.24-10.64v13.68c-12.16,0-18.24,6.08-18.24,15.2v25.85h-15.2V782.7h15.2Z"/><path class="cls-3" d="M842.5,642.84c6.08-10.64,33.44-38,33.44-38l35,188.51-65.37-111C834.9,665.64,837.94,648.92,842.5,642.84Z"/><path class="cls-4" d="M1031,553.14c-12.16,3-83.62,25.85-138.34,42.57-19.77,6.08-31.93,27.36-25.85,48.65l44.09,150.5Z"/></g></g></svg>